<?xml version="1.0" encoding="UTF-8"?>
<svg id="Layer_2" xmlns="http://www.w3.org/2000/svg" version="1.1" viewBox="0 0 838.2 311.2">
  <!-- Generator: Adobe Illustrator 30.2.1, SVG Export Plug-In . SVG Version: 2.1.1 Build 1)  -->
  <defs>
    <style>
      .st0 {
        fill: #123045;
      }

      .st1 {
        fill: #fff;
      }

      .st2 {
        fill: #a92f1b;
      }
    </style>
  </defs>
  <g id="Layer_1-2">
    <path class="st2" d="M246.5,264c-1.4-2.6-2.8-5.3-4.1-7.9-1.7-3.2-2.9-5.8-2.9-7.8,0-2.7,1.6-4.5,3.2-5,1.9-.6,3,.4,4.2,1.3,5.5,4.2,13.3,9.8,24.7,6.7,7.3-1.9,10.7-6.1,10.7-10.3,0-5.9-6.5-6-15.5-6-11.2-.1-25.4-.9-25.3-14.9,0-11.4,9.6-22.5,21.6-25.9,7.3-2.1,11-.8,13.1-1.4,2.2-.6,2.4-3.6,5.1-4.3,3.2-.8,3.9,1.5,6.5,5.1.8,1.2,1.6,2.4,2.5,3.6,3,4.4,4.2,6.9,4.2,8.7s-1.5,3.3-2.7,3.6c-1.8.4-2.8-.4-4.6-1.7-4.4-3.5-12-7.7-20.7-5.3-4.9,1.4-7.6,4.2-7.6,7.6,0,4.4,4.6,4.2,13,4.4,14,.1,28.1,1.8,28.1,17.4,0,13.9-11.3,24.5-27.1,28.7-8,2.1-13.3,1.3-15.8,2-2.8.8-3.2,4.1-5.9,4.9-2.3.7-3.5-1-4.8-3.4"/>
    <path class="st2" d="M368,221.7c0,2.3-.8,4-2.5,7.7-1.5,3.5-3,6.9-4.5,10.4-1.6,3.7-3.1,5.2-5.5,5.5-2.8.4-3.3-2-7.9-1.4-9.4,1.3-18.8,2.8-28.2,4.6-6.4,1.2-8.6,1.9-11.1,2.4-2.9.6-4-.7-4-2.4,0-4.1,5.3-3.6,5.3-10.2v-41.8c0-6.6-5.3-3.9-5.3-8s1.2-3.5,4-4c2.4-.5,4.7-.7,11.1-1.9,8.2-1.5,16.4-2.9,24.6-4.1,4.5-.6,5.1-3.1,7.9-3.5,2.3-.3,3.9.9,5.5,4.2,1.4,2.9,2.7,5.8,4.1,8.7,1.6,3.3,2.5,4.9,2.5,7.2,0,2.3-1.7,3.9-3.3,4.1-1.7.2-2.7-.7-4.3-2.1-6.5-6-10.5-10.1-18.1-9-1.4.2-2.9.5-4.3.7-3.4.5-4.6,2.1-4.6,5.1v12.6c0,1.8.6,2.5,3,2.1.8-.1,1.5-.2,2.3-.4,5.2-.8,5.5-7.4,9.5-8,2.1-.3,3.4.8,3.4,3.8s-.3,4.5-.3,6.7.3,4.4.3,6.6-1.3,4.4-3.4,4.7c-4,.6-4.2-5.9-9.5-5.1-.8.1-1.5.2-2.3.4-2.3.4-3,1.2-3,3.1v13.5c0,3,1.2,4.1,4.6,3.6,2.4-.4,4.7-.8,7.1-1.1,8-1.2,12.7-6.3,19.4-14.7,1.5-1.9,2.6-3,4.3-3.1,1.7-.2,3.4,1,3.3,3.3"/>
    <path class="st2" d="M440.1,175.1c0,4.1-5.9,2.4-5.9,9.1v50c0,3.4-2.4,4.8-4.7,4.8-3.5,0-4.9-1.6-7-4-11.6-13.1-23.1-25.9-34.7-38.3v30.9c0,6.4,7.5,3.7,7.5,8.6s-1.7,3.3-4.6,3.5c-2.9.2-5.3.1-7.8.3-2.3.2-4.9.7-7.5.9-2.9.3-4.1-1.2-4.1-2.8,0-4.1,5.9-3,5.9-9.7v-41.8c0-6.6-5.9-4.4-5.9-8.5s1.7-3.4,4.5-3.6c2.5-.2,5-.2,7.2-.4,2.8-.2,4.9-.7,7.2-.8s3.9.6,5.9,2.6c9.1,10,18.2,20.1,27.4,30.5v-22.2c0-6.5-7.5-4.1-7.5-8.9,0-1.6,1.7-3.3,4.6-3.3,2.9,0,5.3.2,7.8.1,2.3,0,4.9-.3,7.5-.3,2.9,0,4.1,1.6,4.1,3.2"/>
    <path class="st2" d="M445,235.2c0-4.1,5.4-2.4,5.4-9v-41.8c0-6.6-5.4-5.1-5.4-9.2s1.7-3.2,4.6-3.1c2.5,0,4.4.4,10.8.6,6.4.3,8.7.1,11.3.3,2.9.2,4.1,1.8,4.1,3.5,0,4.1-5.4,2.1-5.4,8.8v41.8c0,6.6,5.4,5.3,5.4,9.4,0,1.6-1.2,3.1-4.1,3-2.5-.1-4.8-.6-11.3-.9-6.4-.3-8.8,0-11.3,0-2.9,0-4.1-1.6-4.1-3.3"/>
    <path class="st2" d="M480.2,208.4c0-22.2,16.8-35.5,37.2-32.8,20.9,2.8,37,20.6,37,42.3,0,21.3-14.4,30.6-37.2,27.6-20.8-2.8-37-15.2-37-37.1M532.6,213c0-12.3-4.2-26.9-15.2-28.4-11-1.5-15.4,11.8-15.4,24.9,0,12.5,4.6,25.3,15.3,26.7,11.2,1.5,15.2-10.1,15.2-23.2"/>
    <path class="st2" d="M628.8,266.4c0,1.6-1.2,2.4-3.1,1.8-3-1-7.8-2.7-13.7-4.5-5.3-1.6-9.3-2.4-11.8-3.1-2.9-.8-4.5-2.3-4.5-4.4,0-3.8,4-1.1,4-4.8s-1.7-4.3-3-6.4c-1.4-2.2-2.7-4.4-4.1-6.6-1.7-2.8-2.9-3.9-5-4.4-.7-.2-1.5-.4-2.2-.5-1.2-.3-1.7.2-1.7,1.8v8.7c0,6.6,5.5,6.3,5.5,10.5,0,1.6-1.2,2.9-4,2.2-2.5-.6-4.9-1.5-11.2-2.9-6.3-1.4-8.6-1.6-11.1-2.1-2.8-.6-4-2.4-4-4,0-4.1,5.3-1.4,5.3-8v-41.8c0-6.6-5.3-6.1-5.3-10.2,0-1.6,1.1-3,4.8-2.2,1.4.3,5.2,1.4,9.2,2.3,3.7.8,11.2,1.8,17,3.4,22.2,5.7,32.7,18.4,32.7,31.8,0,9.1-4.8,14.2-13,14.8,2.7,4.4,5.5,8.7,8.2,13.1,6.6,10.5,11.2,11.2,11.2,15.7M601.4,216.9c0-10-5.6-15.5-13.1-17.3-2.5-.6-4.7-.4-4.7,3v19.8c0,2.7,1.9,3.7,5.1,4.5,8.7,2.2,12.7-.5,12.7-9.9"/>
    <path class="st2" d="M319.8,297.5c0,5.9-4.2,9.7-13.2,11-3.4.5-8.4,1-11.2,1.4-3,.5-4.1.8-5.3.9-1.3.2-1.9-.4-1.9-1.2,0-2,2.5-1.6,2.5-4.7v-19.9c0-3.2-2.5-2-2.5-4,0-.8.6-1.6,1.9-1.8,1.2-.2,2.3-.2,5.3-.7,3-.5,6-1.2,9.7-1.8,7.5-1,12.5,1.4,12.5,6.8,0,2.4-1.1,5-4.2,6.9,4,.8,6.5,3.3,6.5,7.1M300,289.4c0,.9.3,1.2,1.6,1,.5,0,1-.1,1.4-.2,2.3-.3,4.5-1.8,4.5-4.8,0-2.9-2.1-4.5-4.8-4.1,0,0-.2,0-.3,0-1.4.2-2.5.7-2.5,2.3v5.8M309.5,298.9c0-3.6-2.5-5.3-6.6-4.7-.5,0-1,.1-1.4.2-1.1.2-1.5.6-1.5,1.8v6c0,2.8.9,2.9,3.6,2.5.1,0,.3,0,.4,0,3.2-.5,5.5-2.8,5.5-5.8"/>
    <path class="st2" d="M354.8,301.7c0,.8-.6,1.4-1.5,1.5-1.5.1-3,.1-6.1.4-3,.3-4.9.6-6.5.8-1.4.1-2.3-.3-2.3-1.3,0-2.1,3-1.5,3.1-3.8,0-.5-.2-1.2-.5-2-.1-.4-.3-.8-.4-1.2-.4-1-.6-1.5-1.9-1.4-2.6.3-5.2.5-7.8.8-1.2.1-1.5.7-1.9,1.8-.1.4-.3.8-.4,1.2-.4,1.1-.6,1.8-.6,2.2,0,2.2,3.2,1,3.2,3.1,0,1-.8,1.6-2.3,1.8-1.5.2-2.9.2-4.2.4-1.3.2-2.3.4-3.8.6-1,.1-1.5-.4-1.5-1.1,0-2.1,2.6-1.7,3.8-4.9,2.1-5.9,4.3-11.8,6.4-17.7.8-2.1,1.7-4.7,2.2-6.5.8-2.6,1.8-3.2,5.5-3.6,3.7-.4,4.5,0,5.3,2.5.6,1.6,1.5,4,2.2,6,2.1,5.4,4.3,10.9,6.4,16.4,1.1,2.8,3.5,2.1,3.5,4.1M338.1,289.3c-1.1-2.8-2.1-5.5-3.2-8.3-1.1,3-2.2,6-3.2,9-.2.6-.3,1.3.8,1.1,1.6-.2,3.3-.4,4.9-.5,1.1-.1,1-.8.7-1.3"/>
    <path class="st2" d="M389.8,299.3c0,.8-.6,1.4-1.5,1.4-1.5,0-3.8,0-6.7.2-2.6.1-4.5.4-5.8.5-1.4,0-2.2-.4-2.2-1.4,0-1.8,1.9-1.2,1.9-2.9s-.8-1.8-1.5-2.6c-.7-.8-1.3-1.7-2-2.5-.8-1-1.4-1.4-2.4-1.3-.4,0-.7,0-1,0-.6,0-.8.4-.8,1.1v4.2c0,3.2,2.6,2.2,2.6,4.2,0,.8-.6,1.6-1.9,1.7-1.2,0-2.4,0-5.4.3-3,.2-4.1.5-5.3.5-1.4.1-2-.6-1.9-1.4,0-2,2.5-1.4,2.5-4.6v-19.9c0-3.2-2.5-2.2-2.5-4.1,0-.7.5-1.6,2.3-1.7.7,0,2.5,0,4.4-.2,1.8-.1,5.4-.8,8.2-.9,10.7-.7,15.9,3.4,15.9,9.8,0,4.3-2.3,7.6-6.3,9.2,1.3,1.6,2.7,3.2,4,4.9,3.2,3.9,5.5,3.4,5.5,5.6M376.5,280.4c0-4.8-2.7-6.5-6.3-6.2-1.2,0-2.3.5-2.3,2.1v9.4c0,1.3.9,1.5,2.5,1.4,4.2-.3,6.1-2.2,6.1-6.7"/>
    <path class="st2" d="M401.5,285.2c0-10.9,7.7-17.8,15.2-17.9,3,0,5.7,1,7,1,1.1,0,1.5-1.3,2.6-1.3,1,0,1.6.7,2.3,2.4.6,1.6,1.2,3.2,1.8,4.8.7,1.9,1,3,1,3.7,0,1.3-.8,1.8-1.7,1.9-.8,0-1.3-.4-1.9-1.2-3.3-4.6-5.8-7.1-8.7-7-4.2,0-7.4,4.7-7.4,11.3,0,7.9,4.1,11.7,9,11.6,3.3,0,5.6-1.9,7.1-3.8.6-.8,1.2-1.4,2.1-1.4,1,0,1.7.8,1.7,1.7s-.3,1.5-.8,2.4c-1.5,3-6,7.1-13.7,7.3-8.2.1-15.5-5.6-15.5-15.4"/>
    <path class="st2" d="M467.6,298.9c0,.7-.6,1.3-1.5,1.3-1.5,0-3.8-.3-6.7-.3-2.6,0-4.5,0-5.8,0-1.4,0-2.2-.6-2.2-1.5,0-1.8,1.9-1,1.9-2.8,0-.9-.8-1.9-1.5-2.7-.7-.9-1.3-1.8-2-2.7-.8-1.1-1.4-1.5-2.4-1.5-.4,0-.7,0-1,0-.6,0-.8.3-.8,1v4.2c0,3.2,2.6,2.4,2.6,4.4,0,.8-.6,1.5-1.9,1.5-1.2,0-2.4-.2-5.4-.2-3,0-4.1.1-5.3.1s-1.9-.8-1.9-1.5c0-2,2.6-1.2,2.5-4.3v-19.9c0-3.2-2.6-2.4-2.5-4.4,0-.8.5-1.5,2.3-1.5s2.5.1,4.4.1c1.7,0,5.4-.3,8.2-.3,10.8.2,15.9,4.7,15.9,11.1,0,4.4-2.3,7.4-6.3,8.7,1.3,1.7,2.7,3.5,4,5.2,3.2,4.2,5.5,3.9,5.5,6M454.2,278.8c0-4.8-2.7-6.7-6.3-6.7-1.2,0-2.3.3-2.3,1.9v9.4c0,1.3.9,1.5,2.5,1.6,4.2,0,6.2-1.7,6.2-6.2"/>
    <path class="st2" d="M503.4,300.9c0,.7-.6,1.3-1.5,1.2-1.5-.1-3-.4-6.1-.5-3-.2-4.9-.2-6.5-.3-1.4,0-2.3-.7-2.3-1.6,0-2.1,3.1-1,3.1-3.3,0-.5-.2-1.2-.5-2.1-.1-.4-.3-.9-.4-1.3-.4-1-.7-1.6-1.9-1.6-2.6-.1-5.2-.3-7.8-.4-1.2,0-1.5.5-1.9,1.5-.1.4-.3.8-.4,1.2-.4,1-.6,1.7-.6,2.1,0,2.2,3.2,1.5,3.2,3.6s-.8,1.5-2.3,1.4c-1.5,0-2.9-.3-4.2-.3-1.3,0-2.3,0-3.8,0-1,0-1.5-.6-1.5-1.4,0-2.1,2.6-1.3,3.8-4.3,2.1-5.6,4.3-11.1,6.4-16.7.8-2,1.7-4.4,2.2-6.1.8-2.5,1.8-2.9,5.5-2.7,3.7.2,4.5.8,5.3,3.3.6,1.7,1.5,4.2,2.2,6.3,2.1,5.8,4.3,11.6,6.4,17.4,1.1,3,3.5,2.7,3.5,4.7M486.7,285.9c-1.1-2.9-2.1-5.9-3.2-8.8-1.1,2.8-2.2,5.6-3.2,8.5-.2.6-.3,1.2.8,1.3,1.6,0,3.3.2,4.9.3,1.1,0,1-.6.8-1.2"/>
    <path class="st2" d="M550.7,276.6c0,2.1-2.8,1.1-3.8,4-2.7,7.6-5.4,15.3-8.1,22.9-.5,1.4-1.3,2.2-4.7,1.9-3.4-.4-4-1.4-4.6-2.9-1.6-4.7-3.2-9.4-4.8-14-1.6,4.4-3.3,8.7-4.9,13.1-.5,1.4-1.5,2.2-4.8,1.9-3.3-.3-4-1.3-4.5-2.8-2.8-8.2-5.6-16.4-8.4-24.5-1-3-3.5-2.7-3.6-4.7,0-.7.8-1.3,1.8-1.2,1.6.1,3,.4,6.1.6,3.1.2,4.7.2,6.2.4,1.3.1,2.1.7,2.1,1.7,0,2-2.5,1-2.5,3.3,0,.5.2,1.3.4,2.1,1.7,5.3,3.4,10.6,5,15.9,1.5-4.2,3.1-8.5,4.6-12.7-.4-1.2-.8-2.5-1.3-3.7-1-3-3.3-2.7-3.3-4.8,0-.8.8-1.2,1.8-1.2,1.6.1,2.8.4,5.8.7,3.1.3,4.8.4,6.4.5,1.4.1,2.1.8,2.1,1.7,0,2-2.8.9-2.8,3.2,0,.6.3,1.6.4,2.1,1.7,5.3,3.5,10.6,5.2,15.9,1.5-4.8,3-9.5,4.5-14.3.4-1.4.6-2.2.6-2.5,0-2.3-3-1.9-3-3.9,0-1,.7-1.4,2.1-1.3,1.5.2,2.9.5,4.2.6,1.3.1,2.6.2,3.9.3,1.2.1,1.8.8,1.8,1.5"/>
    <path class="st2" d="M569.9,309.5c-3.7-.5-7.5-1.1-11.2-1.6-3-.4-4.1-.4-5.3-.6-1.4-.2-1.9-1-1.9-1.8,0-2,2.5-.9,2.5-4v-19.9c0-3.2-2.5-2.7-2.5-4.7s.8-1.4,2.1-1.3c1.2.1,2.1.4,5.1.8,3,.4,4.1.4,5.3.6,1.3.2,1.9,1,1.9,1.8,0,2-2.5.8-2.5,4v19.5c0,1.4.6,2.1,2.2,2.4.5,0,1.1.1,1.6.2,2.9.4,5.5-1.5,8.8-4.7.7-.7,1.3-1.1,2-1,.8.1,1.6,1,1.6,2.1s-.4,1.9-1.2,3.5c-.7,1.5-1.5,3-2.2,4.5-.8,1.6-1.5,2.1-2.6,2-1.3-.2-1.6-1.4-3.7-1.7"/>
    <rect class="st0" x="28.2" y="234.5" width="181.7" height="4.2"/>
    <rect class="st0" x="656.4" y="234.5" width="181.7" height="4.2"/>
    <path class="st0" d="M162,38c0,7.6-10.6,6.8-10.6,19v91.5c0,6.2-4.4,9.7-8.5,10.7-6.2,1.4-8.9-.9-12.5-4.4-20.7-19.3-41.4-38.1-61.9-56.3v56.5c0,11.8,13.4,3.8,13.4,12.8s-3,6.7-8.1,8.2c-5.1,1.5-9.4,2.3-13.9,3.6-4.1,1.3-8.7,3.2-13.3,4.7-5.1,1.6-7.2-.5-7.2-3.6,0-7.6,10.4-7.9,10.4-20v-76.4c0-12.1-10.3-5.8-10.3-13.4s3-6.9,8-8.5c4.4-1.4,8.9-2.3,12.8-3.5,4.9-1.5,8.7-3.1,12.9-4.4,4.1-1.2,6.9-.5,10.4,2.5,16.2,14.6,32.5,29.6,48.9,44.9v-40.7c0-11.8-13.5-4.4-13.5-13.3s3-6.6,8.2-7.9c5.2-1.3,9.5-1.8,14-2.8,4.2-1,8.9-2.5,13.5-3.6,5.2-1.1,7.4,1.3,7.4,4.3"/>
    <path class="st0" d="M287.4,96.7c0,4.2-1.5,7.4-4.6,14.1-2.8,6.3-5.5,12.6-8.3,19-3,6.8-5.8,9.6-10,10.2-5.1.7-6.1-3.6-14.4-2.4-17.3,2.4-34.5,5.2-51.6,8.3-11.6,2.1-15.8,3.5-20.3,4.4-5.2,1.1-7.4-1.4-7.4-4.4,0-7.6,9.7-6.5,9.7-18.6V50.8c0-12.1-9.7-7.1-9.7-14.7,0-3,2.2-6.3,7.4-7.4,4.4-.9,8.6-1.2,20.3-3.4,15-2.8,30-5.2,45-7.4,8.3-1.2,9.3-5.7,14.4-6.4,4.2-.6,7.1,1.6,10,7.6,2.5,5.3,5,10.6,7.5,15.9,2.9,6.1,4.6,8.9,4.6,13.1s-3,7.1-6.1,7.4-4.9-1.2-7.8-3.9c-11.9-10.9-19.1-18.5-33.1-16.4-2.6.4-5.3.8-7.9,1.2-6.2,1-8.4,3.9-8.4,9.3v23.1c0,3.4,1.2,4.5,5.4,3.8,1.4-.2,2.8-.5,4.2-.7,9.6-1.5,10.1-13.5,17.4-14.6,3.9-.6,6.3,1.5,6.3,6.9s-.5,8.1-.5,12.2.5,8,.5,12-2.4,8.1-6.3,8.6c-7.3,1.1-7.8-10.8-17.4-9.3-1.4.2-2.8.4-4.2.7-4.2.7-5.4,2.2-5.4,5.6v24.7c0,5.4,2.2,7.5,8.4,6.5,4.3-.7,8.7-1.4,13-2,14.5-2.2,23.2-11.5,35.5-27,2.7-3.5,4.8-5.4,7.8-5.8,3-.4,6.1,1.8,6.1,6.1"/>
    <path class="st0" d="M424.9,9.8c0,8.2-10.4,5.4-16.2,20.2-11.5,29.3-23.1,58.7-34.6,88.3-3.1,7.7-6.1,10.3-20.9,11.1-14,.8-17.4-1.3-20.4-8.8-11.5-28.3-23-56.4-34.5-84.4-5.4-13.1-15.3-10.5-15.3-18.6s2.7-5.7,6.6-6.1c6.1-.7,12.6-.8,24.3-1.9,12.2-1.1,19.7-2.1,26-2.5,5.4-.4,8.9,1.6,8.9,5.3,0,8.7-11.9,6.8-11.9,15.6s1.5,5.9,3.2,10.4c7.7,19.4,15.4,38.8,23.1,58.3,8.1-21.2,16.1-42.3,24.2-63.3,1.5-3.9,2.2-7,2.2-8.3,0-8.8-13.5-5.3-13.5-13.9s2.7-6,8.4-6.2c6.1-.2,11.6.2,16.7.1,5.3,0,10.6-.7,16.4-.7,5.1,0,7.3,2.4,7.3,5.2"/>
    <path class="st0" d="M539.8,126.7c0,2.9-2.2,4.8-5.9,4.5-5.8-.5-11.7-1.6-23.5-2.4-11.7-.8-19.1-.7-25-1-5.5-.3-8.9-2.4-8.9-6.1,0-7.9,11.9-4.1,11.9-12.7s-.7-4.8-1.9-8c-.6-1.7-1.1-3.3-1.7-5-1.4-3.9-2.5-6-7.3-6.2-10.1-.5-20.2-.8-30.3-1-4.8-.1-6,1.9-7.3,5.8-.6,1.5-1.1,3-1.7,4.5-1.5,4-2.4,6.7-2.4,8.2,0,8.6,12.4,5.6,12.4,13.5s-3.2,5.6-8.9,5.6c-5.8,0-11.2-.6-16.2-.6s-8.9.5-14.7.6c-3.8,0-6-2.1-6-5,0-8.1,10.2-5.5,14.6-17.1,8.3-21.7,16.6-43.3,24.9-64.8,3.1-7.7,6.5-17.2,8.5-23.7,3.2-9.7,7-11.3,21.5-10.8,14.5.6,17.4,2.9,20.6,12.6,2.2,6.5,5.6,16.3,8.7,24.3,8.3,22.2,16.6,44.5,24.8,66.8,4.2,11.4,13.6,10.5,13.6,18.2M475,68.8c-4.1-11.2-8.3-22.4-12.4-33.6-4.2,10.9-8.4,21.8-12.6,32.8-.9,2.2-1,4.7,3.1,4.8,6.4.2,12.7.4,19.1.6,4.3.2,3.8-2.4,2.9-4.6"/>
    <path class="st0" d="M571.8,134.7c-11.7-1.4-15.9-1.3-20.5-1.8-5.3-.6-7.5-3.6-7.5-6.6,0-7.6,9.8-3.5,9.8-15.6V34.2c0-12.1-9.8-10.1-9.8-17.7s2.2-5.7,7.5-5.1c4.6.5,8.8,1.4,20.5,2.8,10.3,1.3,20.8,1.3,31.1,2.9,37.5,5.5,71.4,34.5,71.4,75.2,0,34.1-23.6,54.9-64.5,48.6-12.7-1.9-25.4-4.6-38.1-6.1M603,123.6c20.8,3.1,31.7-8.5,31.7-39s-14.3-48.3-32.7-51.1c-1.2-.2-2.4-.3-3.5-.5-6.3-.9-8.5,1.3-8.5,6.7v74c0,5.4,2.2,8.2,8.5,9.1,1.5.2,3,.4,4.6.7"/>
    <path class="st0" d="M803.5,181.5c0,2.9-2.1,4.4-5.8,3.2-5.6-1.8-11.3-4.1-22.7-7.5-11.4-3.4-18.5-4.9-24.3-6.5-5.3-1.5-8.6-4.4-8.6-8.1,0-7.9,11.6-1.6,11.6-10.1s-.7-4.9-1.8-8.4c-.5-1.8-1.1-3.6-1.7-5.3-1.3-4.2-2.5-6.6-7.1-7.8-9.8-2.6-19.7-5.2-29.6-7.6-4.7-1.1-5.8.6-7.2,4.2-.6,1.4-1.1,2.8-1.7,4.1-1.5,3.7-2.3,6.2-2.3,7.7,0,8.6,12.2,8.3,12.2,16.2s-3.2,4.9-8.7,3.6c-5.7-1.3-11-3.1-15.9-4.1-5-1.1-8.7-1.4-14.4-2.6-3.7-.8-5.9-3.4-5.9-6.3,0-8.1,10.1-3.3,14.4-13.9,8.2-19.9,16.3-39.7,24.4-59.4,3-7,6.3-15.8,8.3-21.9,3.2-9,6.8-9.8,21-6.1,14.1,3.8,16.9,6.6,20.1,17.1,2.2,7,5.5,17.5,8.4,26.1,8,24,16.1,48.1,24.1,72.2,4.1,12.4,13.2,13.4,13.1,21.2M740.6,109.6c-4-12.1-8.1-24.2-12.1-36.3-4.1,10-8.2,20-12.3,30.1-.8,2-1,4.5,3,5.4,6.2,1.5,12.4,3.1,18.6,4.8,4.2,1.1,3.7-1.6,2.8-4"/>
    <path class="st1" d="M24.3,131.4s.3-.4,1-1.1c.2-.2.2-.5.1-.8h0c0-.2-.2-.2-.4-.2,0,0,0,0-.1,0-1.5,1.3-2.2,2.1-3.5,2.8-4.8,2.4-10.1,0-12.9-4.2,0-.1-.2-.2-.4-.1-.1,0-.2.2-.1.3.3,1.2,1,2.4,1.9,3.6,0,0,0,.2,0,.2,0,0-.1,0-.2,0-3.2-2.3-4.7-6.5-4.1-10.3,0-.2,0-.3-.3-.4-.1,0-.2,0-.3.1l-1.3,1.8c0,0-.2.1-.3,0,0,0,0,0,0-.1-.4-4.4,1.2-7.8,4.7-10.2.7-.5,1.5-.7,2.5-1.2.2-.1.3-.4.2-.6,0-.2-.3-.3-.5-.2l-2.8.5c0,0-.2,0-.2-.1,0,0,0-.1,0-.2,1.7-1.5,3.8-2.4,6.3-2.7.2,0,.4,0,.4.3l1,2.8c0,.1.1.2.2.2,2.3,1.4,5.4-.9,6.6-2.7,0-.1.2-.2.4-.1,2.7.7,4.8,2.3,6,4.8.2.4.7,1.8,1.4,4,1.7,5.3-.4,11-5.2,13.8,0,0-.1,0-.2,0,0,0,0,0,0-.1M26.1,126.1c1-.5,1.6-1.2,2-2.2,1-2.7.5-5.2-1.4-7.4,0,0-.2,0-.3,0,0,0,0,.1,0,.2,1.1,3.1,1,6.2-.5,9.2,0,0,0,.2,0,.2,0,0,0,0,.1,0M22.9,125c-.7,1-1.6,1.9-2.8,2.8,0,0,0,.1,0,.2,0,0,0,0,.1,0,1.7,0,2.8-1,3.7-2.3.9-1.4,1.4-2.7.8-4.3,0,0-.1-.1-.2,0,0,0,0,0,0,0-.4,1.4-.9,2.6-1.6,3.6"/>
  </g>
</svg>