<?xml version="1.0" encoding="UTF-8"?><svg id="Layer_2" xmlns="http://www.w3.org/2000/svg" viewBox="0 0 838.16 400.2"><defs><style>.cls-1{fill:#123045;}.cls-2{fill:#fff;}.cls-3{fill:#a92f1b;}</style></defs><g id="Layer_1-2"><path class="cls-3" d="M246.53,353.04c-1.38-2.64-2.76-5.27-4.13-7.89-1.72-3.23-2.86-5.79-2.87-7.81,0-2.67,1.63-4.48,3.23-5,1.9-.6,2.96.35,4.22,1.34,5.5,4.18,13.33,9.79,24.75,6.73,7.26-1.93,10.74-6.07,10.73-10.31,0-5.88-6.47-5.97-15.53-6.05-11.16-.11-25.36-.85-25.34-14.89-.01-11.39,9.58-22.53,21.62-25.92,7.32-2.06,10.96-.78,13.15-1.35,2.18-.56,2.38-3.64,5.09-4.33,3.19-.79,3.91,1.52,6.47,5.13.82,1.18,1.64,2.37,2.46,3.56,3,4.36,4.2,6.85,4.2,8.69s-1.47,3.27-2.74,3.57c-1.82.42-2.83-.35-4.56-1.68-4.37-3.45-12.01-7.73-20.72-5.32-4.88,1.35-7.58,4.17-7.59,7.57.01,4.42,4.59,4.24,13.03,4.38,13.97.11,28.06,1.84,28.07,17.39,0,13.9-11.28,24.52-27.07,28.69-7.98,2.12-13.31,1.29-15.84,2.02-2.8.82-3.24,4.09-5.86,4.87-2.33.71-3.51-1.04-4.77-3.41"/><path class="cls-3" d="M368.03,310.73c0,2.3-.84,4.04-2.5,7.72-1.52,3.45-3.03,6.9-4.54,10.35-1.65,3.69-3.13,5.25-5.46,5.54-2.78.35-3.33-1.97-7.86-1.35-9.43,1.31-18.84,2.83-28.21,4.57-6.35,1.18-8.64,1.94-11.11,2.44-2.86.58-4.04-.73-4.04-2.38,0-4.14,5.33-3.58,5.32-10.2v-41.75c0-6.63-5.32-3.87-5.32-8.01,0-1.65,1.2-3.47,4.04-4.05,2.38-.48,4.68-.69,11.11-1.89,8.18-1.52,16.38-2.87,24.61-4.06,4.53-.65,5.07-3.1,7.86-3.47,2.31-.31,3.88.88,5.46,4.18,1.36,2.9,2.72,5.8,4.08,8.71,1.58,3.31,2.49,4.86,2.5,7.16,0,2.3-1.67,3.87-3.33,4.06-1.66.2-2.68-.69-4.26-2.15-6.48-5.98-10.46-10.14-18.12-8.97-1.44.22-2.89.45-4.33.68-3.43.55-4.59,2.14-4.61,5.08v12.6c0,1.84.65,2.46,2.95,2.08.76-.13,1.53-.25,2.3-.37,5.25-.83,5.53-7.39,9.51-7.98,2.12-.3,3.41.8,3.41,3.75,0,2.21-.28,4.45-.28,6.66,0,2.2.28,4.38.28,6.58,0,2.95-1.3,4.41-3.41,4.71-3.97.59-4.25-5.91-9.51-5.08-.77.12-1.54.25-2.3.37-2.3.38-2.95,1.23-2.95,3.07v13.52c0,2.95,1.19,4.11,4.61,3.56,2.37-.38,4.73-.75,7.1-1.1,7.95-1.17,12.66-6.29,19.42-14.73,1.47-1.92,2.6-2.97,4.26-3.15,1.66-.19,3.35,1.02,3.34,3.32"/><path class="cls-3" d="M440.12,264.15c0,4.13-5.87,2.44-5.87,9.08v50.03c.01,3.4-2.41,4.78-4.74,4.8-3.45.03-4.92-1.6-6.98-3.96-11.57-13.09-23.15-25.86-34.7-38.31v30.9c0,6.43,7.53,3.71,7.53,8.6,0,2.11-1.69,3.32-4.56,3.52-2.89.2-5.28.1-7.81.31-2.33.19-4.92.69-7.52.94-2.9.27-4.07-1.17-4.08-2.82,0-4.14,5.85-3.05,5.85-9.66,0-13.92,0-27.83,0-41.75-.01-6.63-5.85-4.42-5.85-8.55,0-1.83,1.68-3.39,4.55-3.65,2.51-.24,5.03-.18,7.24-.36,2.79-.23,4.93-.66,7.25-.82,2.32-.16,3.91.57,5.85,2.65,9.11,9.97,18.24,20.13,27.36,30.49v-22.25c-.01-6.45-7.54-4.07-7.54-8.93-.01-1.65,1.68-3.27,4.56-3.33,2.89-.06,5.32.18,7.82.15,2.34-.02,4.93-.31,7.54-.3,2.89.01,4.11,1.59,4.09,3.24"/><path class="cls-3" d="M444.98,324.17c.01-4.14,5.39-2.37,5.4-8.99,0-13.92,0-27.83,0-41.75,0-6.63-5.4-5.09-5.4-9.22,0-1.66,1.68-3.19,4.57-3.12,2.5.07,4.36.37,10.8.63,6.41.28,8.74.15,11.26.3,2.88.18,4.08,1.82,4.09,3.47,0,4.13-5.38,2.14-5.39,8.77v41.75c0,6.62,5.39,5.3,5.39,9.44.01,1.65-1.21,3.14-4.09,2.96-2.51-.14-4.84-.57-11.26-.85-6.44-.26-8.75-.02-11.26-.09-2.89-.07-4.1-1.65-4.1-3.3"/><path class="cls-3" d="M480.16,297.44c-.02-22.24,16.83-35.5,37.19-32.77,20.91,2.77,36.97,20.6,36.96,42.28,0,21.29-14.39,30.64-37.15,27.58-20.81-2.77-37-15.18-37-37.1M532.58,302.02c.02-12.31-4.25-26.94-15.15-28.42-11.02-1.45-15.35,11.77-15.37,24.9,0,12.52,4.63,25.28,15.28,26.68,11.2,1.52,15.24-10.08,15.24-23.16"/><path class="cls-3" d="M628.81,355.37c0,1.56-1.16,2.38-3.14,1.75-3.04-.97-7.82-2.74-13.68-4.47-5.34-1.57-9.33-2.39-11.85-3.08-2.88-.79-4.53-2.32-4.53-4.35-.01-3.78,3.99-1.14,3.99-4.81,0-1.84-1.72-4.33-2.99-6.42-1.36-2.2-2.72-4.4-4.09-6.59-1.73-2.75-2.91-3.88-5-4.41-.73-.18-1.45-.36-2.18-.54-1.18-.29-1.74.22-1.73,1.78,0,2.91,0,5.82,0,8.73.02,6.61,5.45,6.32,5.46,10.46,0,1.65-1.19,2.92-4,2.22-2.47-.6-4.93-1.49-11.22-2.94-6.3-1.43-8.59-1.61-11.07-2.14-2.83-.59-4.03-2.39-4.03-4.05,0-4.14,5.31-1.39,5.31-8.01,0-13.92,0-27.83,0-41.75,0-6.63-5.31-6.06-5.31-10.2-.03-1.56,1.11-3,4.77-2.23,1.36.29,5.23,1.37,9.15,2.26,3.65.81,11.15,1.84,17.04,3.36,22.18,5.73,32.71,18.38,32.73,31.82,0,9.11-4.78,14.2-12.97,14.76,2.74,4.35,5.47,8.72,8.2,13.1,6.57,10.55,11.16,11.23,11.15,15.74M601.41,305.86c0-10.02-5.61-15.45-13.08-17.34-2.53-.64-4.73-.44-4.73,2.97,0,6.59,0,13.18,0,19.77,0,2.67,1.92,3.68,5.09,4.48,8.65,2.2,12.71-.49,12.72-9.88"/><path class="cls-3" d="M319.78,386.5c-.02,5.93-4.19,9.71-13.25,10.95-3.41.47-8.35.96-11.22,1.4-2.99.45-4.1.75-5.28.94-1.34.21-1.91-.44-1.91-1.23,0-1.98,2.54-1.58,2.53-4.74v-19.92c.02-3.16-2.53-1.97-2.53-3.95.01-.79.56-1.62,1.91-1.83,1.18-.18,2.27-.22,5.28-.68,2.99-.45,6.02-1.24,9.73-1.76,7.53-1.05,12.47,1.42,12.47,6.81.01,2.42-1.14,4.97-4.25,6.91,4.03.79,6.52,3.3,6.52,7.12M299.98,378.41c0,.88.29,1.19,1.62,1,.48-.07.96-.14,1.44-.21,2.31-.33,4.48-1.81,4.5-4.84,0-2.94-2.07-4.5-4.77-4.12-.09.01-.17.02-.26.04-1.36.2-2.54.71-2.53,2.34,0,1.93,0,3.86,0,5.79M309.55,387.87c0-3.64-2.54-5.28-6.64-4.7-.48.07-.96.14-1.44.2-1.09.16-1.48.65-1.48,1.79,0,1.99,0,3.98,0,5.97,0,2.76.87,2.94,3.63,2.55.14-.02.29-.04.43-.06,3.24-.45,5.51-2.78,5.51-5.76"/><path class="cls-3" d="M354.83,390.66c.02.75-.59,1.36-1.53,1.45-1.49.13-3.02.14-6.06.42-3.02.28-4.9.6-6.45.75-1.41.14-2.26-.29-2.28-1.26,0-2.06,3.05-1.54,3.07-3.77.01-.49-.17-1.22-.49-2.01-.14-.41-.29-.82-.44-1.23-.36-.97-.65-1.47-1.89-1.35-2.6.27-5.2.54-7.8.83-1.23.14-1.54.7-1.89,1.75-.15.41-.29.82-.44,1.23-.38,1.1-.62,1.83-.62,2.22-.01,2.24,3.2,1.04,3.2,3.1.01.97-.84,1.58-2.28,1.75-1.49.17-2.89.2-4.16.35-1.33.16-2.27.4-3.76.58-.97.12-1.54-.38-1.53-1.13.01-2.1,2.63-1.72,3.76-4.89,2.13-5.9,4.26-11.8,6.39-17.68.79-2.1,1.66-4.7,2.19-6.47.83-2.64,1.8-3.18,5.53-3.57,3.72-.39,4.46.07,5.3,2.49.57,1.61,1.45,4.03,2.24,5.96,2.13,5.44,4.27,10.89,6.41,16.35,1.09,2.8,3.5,2.11,3.51,4.12M338.12,378.33c-1.06-2.77-2.13-5.54-3.2-8.31-1.08,3-2.16,6-3.24,9-.22.59-.27,1.26.79,1.14,1.64-.18,3.27-.35,4.91-.53,1.09-.11.95-.76.74-1.3"/><path class="cls-3" d="M389.83,388.34c0,.75-.57,1.35-1.54,1.39-1.5.07-3.82.06-6.68.22-2.6.15-4.53.4-5.76.47-1.4.09-2.19-.39-2.2-1.35,0-1.8,1.93-1.17,1.93-2.93,0-.88-.83-1.79-1.45-2.58-.66-.83-1.32-1.67-1.98-2.5-.84-1.04-1.4-1.4-2.42-1.33-.35.02-.7.05-1.05.07-.56.04-.82.37-.84,1.11v4.17c.02,3.16,2.65,2.19,2.64,4.16,0,.78-.56,1.57-1.94,1.67-1.18.09-2.36.03-5.4.27-3.04.23-4.13.45-5.31.55-1.36.11-1.96-.59-1.93-1.37,0-1.98,2.53-1.4,2.54-4.56v-19.92c0-3.16-2.53-2.16-2.54-4.14,0-.74.52-1.58,2.29-1.72.66-.06,2.51-.07,4.39-.22,1.75-.14,5.36-.75,8.22-.94,10.72-.71,15.92,3.37,15.91,9.81,0,4.34-2.32,7.62-6.33,9.25,1.33,1.62,2.67,3.24,4,4.87,3.22,3.91,5.45,3.41,5.45,5.56M376.46,369.37c0-4.79-2.74-6.46-6.33-6.21-1.24.09-2.28.51-2.29,2.13v9.44c0,1.27.91,1.48,2.46,1.36,4.17-.28,6.14-2.24,6.15-6.72"/><path class="cls-3" d="M401.48,374.18c0-10.88,7.66-17.78,15.19-17.91,3.04-.06,5.68,1.01,6.95.99,1.11-.01,1.54-1.29,2.6-1.3,1.02,0,1.64.69,2.29,2.44.58,1.59,1.17,3.18,1.76,4.77.71,1.88,1.05,2.98,1.05,3.73,0,1.27-.84,1.84-1.72,1.85-.84,0-1.3-.39-1.94-1.22-3.29-4.58-5.77-7.1-8.71-7.05-4.23.07-7.38,4.67-7.4,11.34,0,7.94,4.14,11.7,8.98,11.63,3.31-.05,5.63-1.86,7.13-3.8.56-.75,1.2-1.36,2.07-1.37,1.02,0,1.67.78,1.67,1.7,0,.66-.32,1.45-.79,2.38-1.53,3-6.03,7.12-13.69,7.26-8.23.14-15.45-5.6-15.45-15.43"/><path class="cls-3" d="M467.6,387.91c0,.74-.57,1.3-1.54,1.26-1.48-.05-3.82-.26-6.69-.34-2.61-.07-4.53.02-5.77-.01-1.41-.03-2.2-.57-2.2-1.54-.01-1.8,1.94-1.02,1.93-2.77,0-.88-.82-1.86-1.45-2.7-.66-.89-1.32-1.78-1.98-2.67-.84-1.12-1.39-1.51-2.42-1.53-.35,0-.7,0-1.05-.01-.57,0-.82.29-.83,1.04v4.17c0,3.16,2.63,2.4,2.64,4.38,0,.79-.57,1.52-1.94,1.51-1.17-.02-2.39-.16-5.41-.19-3.04-.02-4.14.11-5.33.11-1.36,0-1.93-.75-1.93-1.53,0-1.98,2.57-1.19,2.55-4.34v-19.92c.02-3.16-2.56-2.37-2.55-4.35-.01-.75.53-1.53,2.29-1.53.67,0,2.51.14,4.4.15,1.74.01,5.37-.3,8.23-.26,10.75.18,15.92,4.7,15.93,11.14,0,4.35-2.31,7.42-6.33,8.72,1.34,1.73,2.67,3.47,4,5.2,3.21,4.18,5.46,3.87,5.45,6.01M454.22,367.83c0-4.79-2.72-6.69-6.34-6.74-1.22-.02-2.28.32-2.29,1.94v9.43c0,1.27.93,1.55,2.46,1.57,4.19.07,6.16-1.73,6.16-6.2"/><path class="cls-3" d="M503.41,389.9c0,.74-.58,1.27-1.54,1.2-1.49-.11-3.04-.35-6.07-.55-3.03-.21-4.91-.18-6.46-.28-1.41-.08-2.29-.66-2.28-1.62,0-2.06,3.07-1.05,3.08-3.28,0-.48-.18-1.24-.48-2.09-.15-.43-.3-.86-.44-1.3-.35-1.03-.66-1.58-1.89-1.65-2.61-.15-5.21-.29-7.83-.42-1.22-.06-1.54.45-1.89,1.45-.15.39-.29.77-.44,1.16-.4,1.04-.61,1.73-.61,2.12,0,2.24,3.21,1.55,3.21,3.62,0,.97-.83,1.45-2.29,1.38-1.5-.07-2.9-.27-4.18-.32-1.31-.06-2.27.03-3.78-.02-.97-.04-1.54-.63-1.55-1.38,0-2.1,2.65-1.3,3.78-4.28,2.14-5.56,4.28-11.11,6.42-16.66.8-1.98,1.68-4.44,2.2-6.12.84-2.5,1.81-2.89,5.54-2.69,3.74.21,4.49.79,5.32,3.34.58,1.7,1.47,4.25,2.24,6.32,2.14,5.78,4.28,11.57,6.42,17.37,1.1,2.97,3.51,2.67,3.52,4.69M486.67,374.89c-1.07-2.94-2.14-5.88-3.21-8.82-1.08,2.82-2.17,5.65-3.25,8.48-.21.56-.26,1.21.79,1.27,1.64.08,3.28.17,4.93.26,1.1.06.96-.6.75-1.18"/><path class="cls-3" d="M550.65,365.65c0,2.15-2.75,1.11-3.81,4-2.71,7.63-5.43,15.26-8.14,22.91-.49,1.39-1.32,2.22-4.69,1.85-3.41-.36-4.03-1.35-4.56-2.85-1.59-4.68-3.18-9.36-4.78-14.04-1.63,4.36-3.27,8.72-4.91,13.09-.53,1.44-1.45,2.23-4.78,1.94-3.3-.28-3.95-1.26-4.48-2.75-2.81-8.19-5.62-16.37-8.43-24.53-1.01-2.97-3.55-2.67-3.56-4.73,0-.74.78-1.27,1.76-1.19,1.58.11,2.97.35,6.1.59,3.09.24,4.66.24,6.23.37,1.35.12,2.11.7,2.11,1.67,0,1.97-2.5,1.02-2.5,3.3-.01.48.18,1.29.44,2.1,1.68,5.29,3.37,10.59,5.05,15.89,1.55-4.23,3.1-8.46,4.64-12.69-.42-1.24-.85-2.48-1.27-3.72-1.01-2.99-3.31-2.72-3.34-4.78,0-.75.79-1.25,1.75-1.16,1.56.14,2.78.39,5.84.69,3.12.31,4.77.35,6.36.52,1.36.14,2.06.75,2.06,1.71,0,1.97-2.75.94-2.76,3.22,0,.62.27,1.56.44,2.11,1.72,5.3,3.45,10.61,5.17,15.92,1.52-4.78,3.03-9.55,4.55-14.32.44-1.36.56-2.17.57-2.52.02-2.29-2.96-1.88-2.98-3.86,0-.97.66-1.42,2.06-1.26,1.51.18,2.94.48,4.16.62,1.26.15,2.58.18,3.89.34,1.17.14,1.8.8,1.79,1.54"/><path class="cls-3" d="M569.87,398.47c-3.72-.55-7.45-1.08-11.18-1.58-3.01-.41-4.11-.41-5.29-.57-1.36-.18-1.92-.99-1.92-1.78.01-1.98,2.53-.86,2.53-4.02v-19.92c0-3.16-2.53-2.7-2.53-4.67,0-.79.78-1.43,2.14-1.26,1.18.15,2.07.4,5.07.8,3.01.41,4.12.43,5.29.6,1.35.19,1.91,1.02,1.92,1.81,0,1.98-2.52.83-2.53,3.99v19.48c0,1.41.58,2.14,2.18,2.37.54.08,1.08.15,1.62.23,2.91.42,5.51-1.52,8.77-4.7.73-.72,1.26-1.12,2.05-1,.84.13,1.61.95,1.61,2.06,0,1.13-.44,1.86-1.22,3.45-.73,1.48-1.46,2.96-2.18,4.45-.79,1.58-1.48,2.14-2.62,1.97-1.3-.2-1.57-1.38-3.72-1.7"/><rect class="cls-1" x="28.16" y="323.55" width="181.73" height="4.17"/><rect class="cls-1" x="656.43" y="323.55" width="181.73" height="4.17"/><path class="cls-1" d="M162.04,126.99c0,7.56-10.55,6.84-10.55,18.97v91.54c0,6.23-4.35,9.72-8.53,10.69-6.18,1.43-8.85-.95-12.52-4.44-20.74-19.32-41.37-38.1-61.89-56.33v56.54c0,11.76,13.38,3.81,13.38,12.76,0,3.87-2.98,6.73-8.1,8.23-5.12,1.5-9.41,2.28-13.86,3.64-4.12,1.26-8.73,3.2-13.33,4.66-5.09,1.62-7.23-.54-7.23-3.57,0-7.59,10.35-7.87,10.35-19.97v-76.4c0-12.13-10.35-5.79-10.35-13.35,0-3.36,2.95-6.85,8.05-8.47,4.44-1.41,8.88-2.28,12.83-3.49,4.94-1.51,8.74-3.15,12.87-4.36,4.13-1.21,6.94-.51,10.42,2.54,16.22,14.63,32.51,29.6,48.86,44.91v-40.72c0-11.8-13.5-4.44-13.5-13.33,0-3.03,2.99-6.65,8.16-7.92,5.17-1.27,9.51-1.79,14.02-2.84,4.18-.97,8.86-2.54,13.54-3.58,5.19-1.14,7.37,1.26,7.37,4.28"/><path class="cls-1" d="M287.39,185.68c0,4.21-1.53,7.4-4.58,14.14-2.77,6.32-5.54,12.64-8.31,18.97-3.05,6.76-5.76,9.62-10,10.16-5.08.66-6.1-3.59-14.39-2.45-17.26,2.41-34.47,5.2-51.64,8.34-11.61,2.15-15.8,3.51-20.34,4.41-5.2,1.05-7.38-1.35-7.38-4.38,0-7.58,9.73-6.53,9.73-18.63v-76.4c0-12.13-9.74-7.12-9.73-14.68,0-3.03,2.18-6.35,7.38-7.4,4.37-.86,8.56-1.22,20.34-3.4,14.98-2.75,29.99-5.21,45.04-7.4,8.29-1.19,9.3-5.69,14.38-6.38,4.23-.56,7.11,1.59,9.99,7.63,2.49,5.3,4.97,10.6,7.46,15.92,2.88,6.05,4.58,8.89,4.58,13.09,0,4.21-3.05,7.08-6.1,7.45s-4.92-1.25-7.79-3.92c-11.85-10.93-19.13-18.52-33.15-16.38-2.65.41-5.29.83-7.93,1.25-6.24,1.01-8.43,3.92-8.43,9.3v23.05c0,3.37,1.18,4.51,5.4,3.82,1.41-.23,2.81-.46,4.22-.68,9.62-1.52,10.13-13.53,17.4-14.6,3.89-.57,6.26,1.46,6.26,6.85,0,4.04-.51,8.15-.51,12.19s.51,8,.51,12.04c0,5.39-2.37,8.07-6.26,8.63-7.27,1.07-7.78-10.81-17.4-9.29-1.41.22-2.81.45-4.22.68-4.22.69-5.4,2.24-5.4,5.61v24.74c0,5.39,2.19,7.53,8.43,6.52,4.33-.7,8.67-1.37,13-2.02,14.54-2.16,23.17-11.54,35.54-27.02,2.71-3.52,4.75-5.45,7.8-5.79,3.05-.35,6.11,1.84,6.11,6.05"/><path class="cls-1" d="M424.88,98.8c0,8.24-10.4,5.37-16.19,20.25-11.53,29.29-23.06,58.73-34.58,88.34-3.07,7.71-6.13,10.29-20.94,11.08-13.96.8-17.35-1.26-20.42-8.8-11.51-28.28-23.01-56.41-34.49-84.37-5.43-13.1-15.27-10.5-15.27-18.57,0-3.03,2.71-5.69,6.62-6.11,6.11-.65,12.56-.82,24.28-1.86,12.24-1.06,19.72-2.08,26.01-2.5,5.44-.36,8.85,1.64,8.85,5.34,0,8.73-11.91,6.8-11.91,15.57,0,2.52,1.53,5.95,3.23,10.38,7.71,19.35,15.43,38.77,23.15,58.26,8.06-21.19,16.12-42.3,24.19-63.33,1.53-3.91,2.21-6.96,2.21-8.3,0-8.77-13.46-5.32-13.46-13.88,0-3.7,2.72-6,8.35-6.17,6.13-.18,11.59.2,16.7.12,5.28-.09,10.57-.65,16.36-.67,5.11-.01,7.33,2.36,7.33,5.22"/><path class="cls-1" d="M539.77,215.7c0,2.86-2.21,4.83-5.94,4.49-5.78-.52-11.72-1.56-23.46-2.42-11.74-.84-19.06-.73-25.01-1.04-5.45-.28-8.85-2.44-8.85-6.15,0-7.93,11.92-4.14,11.92-12.71,0-1.85-.68-4.75-1.87-8.01-.57-1.66-1.14-3.31-1.7-4.97-1.36-3.94-2.55-6.02-7.32-6.24-10.1-.46-20.21-.79-30.32-1-4.77-.1-5.96,1.91-7.33,5.76-.57,1.51-1.14,3.01-1.7,4.52-1.53,4.02-2.39,6.7-2.39,8.22,0,8.56,12.44,5.57,12.44,13.5,0,3.7-3.24,5.64-8.86,5.56-5.79-.08-11.25-.63-16.19-.63-5.11,0-8.86.51-14.66.57-3.75.04-5.96-2.11-5.96-4.97,0-8.09,10.22-5.52,14.65-17.13,8.29-21.68,16.59-43.28,24.88-64.79,3.07-7.69,6.47-17.21,8.52-23.72,3.24-9.67,6.99-11.32,21.46-10.75,14.48.62,17.37,2.87,20.6,12.63,2.21,6.52,5.61,16.32,8.68,24.26,8.28,22.19,16.56,44.46,24.83,66.81,4.25,11.45,13.59,10.48,13.59,18.23M474.97,157.84c-4.14-11.23-8.29-22.44-12.43-33.63-4.2,10.91-8.4,21.84-12.61,32.8-.85,2.17-1.02,4.68,3.07,4.79,6.36.16,12.72.37,19.08.63,4.26.18,3.75-2.36,2.9-4.59"/><path class="cls-1" d="M571.83,223.74c-11.69-1.42-15.94-1.34-20.52-1.84-5.26-.55-7.47-3.62-7.47-6.65,0-7.58,9.84-3.54,9.84-15.64v-76.4c0-12.13-9.84-10.12-9.84-17.68,0-3.03,2.21-5.68,7.47-5.12,4.58.5,8.83,1.43,20.52,2.84,10.34,1.26,20.83,1.34,31.14,2.87,37.54,5.49,71.4,34.46,71.39,75.17-.01,34.09-23.6,54.93-64.47,48.55-12.67-1.95-25.36-4.55-38.07-6.11M602.97,212.65c20.79,3.11,31.72-8.47,31.72-38.96,0-31.46-14.31-48.34-32.74-51.05-1.18-.17-2.37-.35-3.55-.52-6.26-.9-8.46,1.34-8.46,6.72v74.04c0,5.39,2.2,8.2,8.46,9.1,1.52.22,3.04.44,4.56.67"/><path class="cls-1" d="M803.51,270.52c0,2.86-2.13,4.35-5.75,3.2-5.59-1.78-11.34-4.11-22.72-7.52-11.39-3.39-18.51-4.87-24.31-6.48-5.3-1.46-8.63-4.37-8.62-8.07,0-7.93,11.61-1.55,11.61-10.12,0-1.85-.66-4.9-1.82-8.42-.55-1.78-1.1-3.56-1.66-5.34-1.33-4.23-2.48-6.58-7.13-7.83-9.85-2.65-19.72-5.18-29.61-7.59-4.67-1.13-5.84.62-7.17,4.17-.56,1.38-1.11,2.77-1.67,4.15-1.5,3.68-2.34,6.18-2.34,7.7,0,8.56,12.18,8.27,12.18,16.2,0,3.7-3.17,4.94-8.68,3.64-5.68-1.34-11.03-3.07-15.88-4.15-5.02-1.11-8.7-1.41-14.4-2.61-3.69-.77-5.87-3.4-5.87-6.27,0-8.09,10.06-3.3,14.41-13.95,8.15-19.88,16.29-39.68,24.41-59.39,3-7.03,6.34-15.8,8.34-21.88,3.16-8.96,6.84-9.8,20.97-6.09,14.11,3.77,16.91,6.64,20.06,17.1,2.15,7,5.46,17.54,8.44,26.14,8.04,23.99,16.07,48.06,24.08,72.21,4.12,12.38,13.15,13.44,13.14,21.18M740.61,198.58c-4.04-12.13-8.08-24.24-12.13-36.33-4.1,10-8.21,20.02-12.32,30.06-.83,1.99-1,4.46,3,5.45,6.22,1.54,12.43,3.14,18.63,4.78,4.15,1.1,3.65-1.55,2.82-3.96"/><path d="M4.11,155.21c-.77,4.1-.54,8.26.7,12.36.61,2.01,1.31,4.09,2.05,6.31,1.12,3.32,2.27,6.76,3.19,10.18,1.18,4.37,1.88,7.01,2.08,7.85.22.93.83,1.71,1.64,2.18-.03,0-.07,0-.1,0h-.23s-.19.02-.19.02c-3.12.36-5.84,1.53-8.03,3.44-.94.79-1.39,2.03-1.17,3.29,0,.05.02.1.03.14-3.04,2.99-4.42,6.92-4.03,11.53.1.94.59,1.82,1.34,2.38.33.26.71.45,1.11.57.72,3.32,2.58,6.27,5.29,8.16l.09.06.95.55h.91c.58,0,1.14-.14,1.64-.42,1.89.99,3.95,1.53,6.01,1.53,1.89,0,3.73-.44,5.46-1.3.21-.11.42-.22.61-.33.3.09.62.13.93.13l.97-.02.77-.46c6.1-3.62,8.82-10.88,6.61-17.65-1.02-3.12-1.38-3.98-1.61-4.45-1.54-3.04-4.04-5.18-7.21-6.24,1.98-4.48,3.34-9.13,4.07-13.88.16.02.32.04.49.04,1.17,0,2.26-.58,2.93-1.55,1.96-2.89,3.15-4.67,3.64-5.46,1.9-3.05,5.72-7.51,8.18-9.89,1.64-1.59,2.98-3.04,4.04-4.37.09,0,.18.01.28.01.5,0,1.01-.11,1.47-.32,2.39-1.09,5.57-2.51,9.46-4.23,3.15-1.39,5.43-2.86,7.68-4.68.4.2.85.33,1.33.38.45.03.9.05,1.35.05,3.5,0,6.57-.99,8.98-2.88.35.12.72.18,1.1.18h.4s.56-.13.66-.16c.55.52,1.27.85,2.07.91,2.81.24,4.57.37,5.69.44.59,2.08,1.79,3.15,2.7,3.67.15.09.21.15.51.47.21.23.43.46.7.72.39.37.85.65,1.35.83.41.14.83.21,1.26.21,1.61,0,3.05-1.02,3.58-2.54.55-1.56,1.1-3.36,1.64-5.35,1.13-4.14.04-8.01-3.16-11.17-.62-.61-1.32-1.21-2.07-1.84-.14-.12-.27-.23-.41-.35.39-.83.44-1.82.06-2.74l-.04-.1c-1.61-3.54-4.07-7.8-8.95-9.3-1.23-.38-2.21-.74-2.91-1.06-1.9-.88-3.86-1.43-5.86-1.65-.01-.14-.02-.29-.05-.43-.19-.92-.73-1.7-1.57-2.25-5.16-3.21-10.88-5.44-16.99-6.64-.77-.15-1.56-.22-2.34-.22-.32,0-.65.01-.98.04-.17-.28-.38-.54-.63-.77-.6-.56-1.35-.94-2.19-1.09-.97-.18-1.97-.27-2.95-.27-2.86,0-5.76.76-8.63,2.26-3.26,1.71-7.11,4.06-11.42,7-3.45,2.35-6.34,4.94-8.56,7.68-3.86,4.75-6.71,9.95-8.44,15.44-.11.34-.22.69-.32,1.04-1.08.25-1.97,1-2.38,2.02"/><path class="cls-3" d="M35.23,125.06l-.16-.05c-.05-.02-.11,0-.14.05-2.59,3.77-4.65,7.14-6.19,10.11-.1.18-.17.28-.22.29-.17.06-.36-.04-.42-.21-.02-.07-.02-.14,0-.21l1.43-4.44c.03-.1-.03-.21-.13-.24-.06-.02-.12,0-.17.03-1.03.76-1.83,1.91-2.41,3.43-.13.35-1.13,3.97-3,10.84-1.05,3.85-1.38,7.65-.98,11.41.2,1.89.67,4.51,1.41,7.85.32,1.45.51,2.45.57,3,.15,1.46.44,2.8.39,4.07-.09,2.24.14,4.66-.05,6.67-.56,5.87-2.1,11.53-4.64,16.98-.6,1.29-1.46,2.17-2.52,3.19-.17.17-.44.16-.61,0-.03-.03-.06-.07-.08-.11-.22-.42-.31-.92-.27-1.5.22-3.54.3-7.03.24-10.46-.07-3.98.05-6.59-1.21-9.32-.05-.16-.22-.24-.38-.19-.16.05-.24.22-.19.38.41,1.7.63,3.65.65,5.85.03,2.38-.02,4.72-.15,7.03-.04.63-.15,1.18-.35,1.65-.04.09-.14.14-.24.1-.05-.02-.09-.07-.11-.13-.21-.85-.91-3.49-2.1-7.92-1.57-5.82-3.77-11.61-5.28-16.59-1.09-3.6-1.3-7.21-.62-10.81.26-1.36.92-3.27,2-5.72.24-.53,1.03-2.4,2.39-5.59.04-.09.14-.14.24-.1.08.03.13.12.11.2l-.66,3.88c-.04.22.1.43.32.48.17.03.34-.04.43-.19.38-.59.6-1.04.67-1.34.52-2.23,1.08-4.33,1.7-6.28,1.62-5.12,4.24-9.9,7.86-14.36,2.04-2.51,4.66-4.85,7.87-7.04,4.23-2.88,7.93-5.15,11.09-6.8,3.23-1.68,6.38-2.24,9.47-1.67.22.04.4.13.54.26.18.17.19.45.03.63-.04.04-.09.08-.14.1-1.89.86-3.64,1.67-5.23,2.42-.7.33-1.18.73-1.45,1.21-.04.08-.01.19.07.23.04.02.1.03.15,0,2.31-1.03,5.02-1.93,8.11-2.69,1.37-.34,2.71-.38,4.03-.12,5.75,1.12,11.04,3.19,15.89,6.2.11.07.14.21.07.32-.02.04-.06.07-.1.09-2.45.98-4.86,2.14-7.36,2.05-3.7-.13-7.38,1.01-10.33,3.1-.02.01-.04.03-.06.05l-1.53,1.5c-.22.21-.49.36-.78.42l-5.74,1.22c-.16.03-.31-.07-.34-.22-.02-.1.01-.2.09-.27l1.92-1.72c.18-.16.19-.43.03-.61l-.18-.2c-.08-.08-.21-.09-.29-.02l-9.12,8.18s-.1.08-.15.11c-1.6.86-3.44,1.41-4.83,2.5-1.6,1.26-3.09,2.63-4.46,4.09-.1.11-.27.12-.38.01-.06-.06-.1-.15-.09-.23.18-1.68,1.13-3.35,2.1-5.29.2-.41.68-1.56,1.44-3.43.76-1.88,1.64-3.83,2.64-5.84.05-.1,0-.22-.09-.27,0,0-.02,0-.03-.01"/><path class="cls-2" d="M73.67,125.33c.14.04.29-.04.33-.18,0,0,0-.01,0-.02l.04-.18c.02-.09-.02-.18-.11-.21l-3.24-1.39c-.09-.04-.13-.14-.09-.22.02-.05.06-.09.12-.1,3.35-.84,6.74-.49,9.93.99.85.39,1.95.8,3.33,1.22,3.48,1.07,5.47,4.3,6.93,7.52.03.06,0,.13-.06.16-.04.02-.08.01-.12-.01-1.72-1.35-3.78-2.98-5.64-3.41-.09-.02-.17.03-.19.12-.01.05,0,.11.04.15,2.14,2.25,3.37,3.57,3.69,3.96,1.64,1.98,4.01,3.63,5.43,5.03,2.35,2.33,3.12,4.99,2.3,7.98-.53,1.93-1.05,3.64-1.58,5.13-.1.27-.39.42-.67.32-.07-.03-.13-.06-.19-.11-.66-.62-.94-1.13-1.79-1.63-.62-.36-1.04-1.01-1.26-1.95-.04-.16.03-.32.17-.4,1.98-1.16,4.79-2.53,3-5.34-.06-.1-.2-.13-.3-.07-.07.04-.11.12-.1.2l.04,1.11c.02.59-.27,1.15-.77,1.47-.76.47-1.75.79-2.99.94-.45.06-2.98-.11-7.58-.5-.07,0-.13-.07-.13-.14,0-.05.03-.09.07-.11,1.22-.65,2.23-1.57,3.02-2.76.06-.07.04-.17-.03-.23-.05-.04-.13-.05-.19,0-2.12,1.21-4.15,2.03-6.1,2.47-.09.02-.18-.04-.2-.13,0-.03,0-.07,0-.1l1.44-3.24c.06-.14,0-.31-.15-.37-.02-.01-.05-.02-.07-.02-.05,0-.12.02-.24.07-.05.02-.09.06-.11.1-.5.69-1.41,1.75-2.72,3.17-2.4,2.59-5.85,3.41-9.19,3.17-.09,0-.16-.09-.15-.18,0-.03.01-.05.02-.07l2.62-3.99c.04-.07.03-.16-.04-.2-.04-.03-.1-.03-.14-.01-.77.36-1.41.77-1.92,1.25-3.91,3.6-6.46,5.78-10.98,7.78-3.94,1.74-7.11,3.15-9.52,4.25-.1.05-.22,0-.27-.09-.04-.07-.03-.15.02-.21.57-.8.96-1.55,1.16-2.24.04-.12-.03-.25-.15-.28-.07-.02-.15,0-.21.04l-1.59,1.3c-.07.06-.12.12-.17.2-.97,1.8-2.8,4-5.47,6.59-2.38,2.31-6.5,7.01-8.68,10.5-.46.74-1.65,2.52-3.57,5.35-.08.12-.25.15-.37.07-.07-.05-.12-.14-.11-.23.12-4.6-.32-9.29-1.31-14.07-.8-3.86-1.25-8.5-1.39-11.91-.18-4.26,5.82-9.58,9.18-12.72.61-.57,1.27-.99,1.98-1.25.09-.03.2.02.23.11.02.05.01.1-.01.15-.68,1.17-1.05,2.27-1.12,3.32-.01.12.07.24.2.25.09.01.19-.04.23-.12,2.63-4.53,6-8.54,11.04-10.3,2.9-1.02,6.1-1.67,9.58-1.97.21-.02.37-.11.48-.26.08-.11.05-.27-.06-.35-.03-.02-.06-.03-.09-.04l-1.41-.3c-.18-.04-.3-.21-.26-.4.02-.1.08-.18.16-.23,5.7-3.31,11.7-4.04,17.99-2.18M84.33,134.45c.44.73.85,1.65,1.21,2.76.03.09.13.14.22.11.04-.01.08-.04.1-.08.39-.73-.36-2.59-.76-3.24-.39-.65-1.68-2.2-2.51-2.2-.1,0-.18.08-.18.18,0,.04.02.09.05.12.8.84,1.42,1.63,1.86,2.36M33.47,152.76c.03-.09-.02-.2-.12-.23-.08-.03-.16,0-.21.07-1.95,2.74-2.61,5.8-1.98,9.19.07.36.21.63.42.8.15.13.38.11.5-.04.06-.07.09-.15.08-.24-.05-3.43.38-6.61,1.3-9.55M34.88,159.11l1.47-5.16s0-.07-.04-.08c0,0,0,0,0,0h-.02c-.51-.16-1.25.83-1.64,2.19,0,0,0,0,0,0l-.1.35c-.39,1.36-.28,2.58.24,2.73h.02s.07,0,.08-.04c0,0,0,0,0,0M29.72,166.14l-.64-8.05s0,0,0,0h-.03c-.66.06-1.05,1.87-.88,4.05v.16c.19,2.18.86,3.91,1.52,3.86h.03s0,0,0-.01"/><path class="cls-2" d="M24.29,220.39s.32-.39.95-1.15c.17-.21.23-.49.15-.75v-.02c-.05-.15-.21-.23-.35-.19-.04.01-.08.03-.11.06-1.48,1.28-2.23,2.11-3.52,2.76-4.82,2.4-10.1.01-12.9-4.2-.07-.13-.24-.17-.37-.1-.11.06-.16.2-.12.32.34,1.23.96,2.43,1.86,3.58.05.07.03.16-.03.21-.05.03-.11.04-.16,0-3.25-2.26-4.65-6.48-4.1-10.26.02-.18-.1-.34-.28-.36-.11-.02-.23.03-.3.12l-1.35,1.83c-.06.08-.18.1-.26.03-.04-.03-.07-.08-.07-.13-.38-4.35,1.2-7.76,4.73-10.23.66-.46,1.47-.73,2.47-1.2.22-.11.31-.37.2-.59-.08-.17-.27-.27-.46-.24l-2.76.48c-.1.02-.2-.05-.22-.15-.01-.07.01-.14.07-.18,1.73-1.51,3.83-2.41,6.3-2.69.18-.02.36.09.42.27l1.01,2.84c.04.1.11.19.21.25,2.27,1.36,5.45-.85,6.57-2.67.07-.13.22-.19.37-.15,2.74.72,4.75,2.33,6.02,4.84.23.45.7,1.78,1.42,3.99,1.73,5.32-.35,10.96-5.17,13.82-.06.04-.15.02-.18-.05-.02-.03-.02-.07-.01-.1M26.1,215.08c.97-.48,1.64-1.22,2.02-2.22,1.02-2.74.55-5.2-1.41-7.38-.07-.08-.2-.08-.28-.01-.06.05-.08.13-.05.21,1.14,3.1.98,6.18-.48,9.21-.04.08,0,.17.07.2.04.02.09.02.13,0M22.93,213.97c-.68.99-1.6,1.91-2.76,2.76-.06.04-.07.12-.02.18.02.03.06.05.1.05,1.66-.01,2.75-.98,3.66-2.33.92-1.35,1.42-2.71.83-4.26-.03-.07-.1-.1-.17-.07-.03.02-.06.04-.07.08-.36,1.39-.89,2.59-1.57,3.58"/><path class="cls-1" d="M490.51,12.35c0,5.62-3.34,10.59-15.47,10.59-2.81,0-3.25-.26-3.25.97v2.94c0,3.12,3.25,2.11,3.25,4.35,0,.79-.57,1.54-1.93,1.54-1.27,0-2.72-.13-6.02-.13-3.03,0-4.13.13-5.32.13-1.36,0-1.93-.75-1.93-1.54,0-1.98,2.55-1.19,2.55-4.35V6.9c0-3.16-2.55-2.37-2.55-4.35,0-.79.79-1.54,2.15-1.54,1.19,0,2.07.13,5.01.13,2.07,0,4.48-.35,7.47-.35,10.85,0,16.04,4.57,16.04,11.56ZM480.27,12.13c0-4.61-2.42-7.08-5.98-7.08-2.5,0-2.5,1.23-2.5,1.98v9.93c0,1.36.92,1.76,2.5,1.76,3.87,0,5.98-2.29,5.98-6.59Z"/><path class="cls-1" d="M525.97,31.42c0,.75-.57,1.32-1.54,1.32-1.49,0-3.82-.13-6.68-.13-2.59,0-4.53.13-5.76.13-1.41,0-2.2-.53-2.2-1.49,0-1.8,1.93-1.05,1.93-2.81,0-.88-.83-1.85-1.45-2.68l-1.98-2.64c-.83-1.1-1.41-1.49-2.42-1.49h-1.05c-.57,0-.83.31-.83,1.05v4.17c0,3.16,2.64,2.37,2.64,4.35,0,.79-.57,1.54-1.93,1.54-1.19,0-2.37-.13-5.41-.13s-4.13.13-5.32.13c-1.36,0-1.93-.75-1.93-1.54,0-1.98,2.55-1.19,2.55-4.35V6.9c0-3.16-2.55-2.37-2.55-4.35,0-.75.53-1.54,2.29-1.54.66,0,2.5.13,4.39.13,1.76,0,5.36-.35,8.22-.35,10.72,0,15.91,4.31,15.91,10.77,0,4.35-2.33,7.51-6.33,8.92l4,5.1c3.21,4.09,5.45,3.69,5.45,5.84ZM512.62,11.69c0-4.79-2.72-6.64-6.33-6.64-1.23,0-2.29.35-2.29,1.98v9.45c0,1.27.92,1.54,2.46,1.54,4.17,0,6.15-1.85,6.15-6.33Z"/><path class="cls-1" d="M557.61,23.16c0,1.1-.4,1.89-1.19,3.56l-2.15,4.7c-.79,1.67-1.49,2.33-2.59,2.33-1.32,0-1.58-1.14-3.74-1.14h-13.45c-3.03,0-4.13.13-5.32.13-1.36,0-1.93-.75-1.93-1.54,0-1.98,2.55-1.19,2.55-4.35V6.9c0-3.16-2.55-2.37-2.55-4.35,0-.79.57-1.54,1.93-1.54,1.14,0,2.24.13,5.32.13h11.73c2.15,0,2.42-1.14,3.74-1.14,1.1,0,1.85.66,2.59,2.33l1.93,4.39c.75,1.67,1.19,2.46,1.19,3.56s-.79,1.76-1.58,1.76-1.27-.48-2.02-1.27c-3.08-3.25-4.97-5.49-8.61-5.49h-2.07c-1.63,0-2.2.66-2.2,2.07v6.02c0,.88.31,1.23,1.41,1.23h1.1c2.5,0,2.64-3.12,4.53-3.12,1.01,0,1.63.62,1.63,2.02,0,1.05-.13,2.11-.13,3.16s.13,2.11.13,3.16c0,1.41-.62,2.02-1.63,2.02-1.89,0-2.02-3.12-4.53-3.12h-1.1c-1.1,0-1.41.35-1.41,1.23v6.46c0,1.41.57,2.07,2.2,2.07h3.38c3.78,0,6.02-2.15,9.23-5.8.7-.83,1.23-1.27,2.02-1.27s1.58.66,1.58,1.76Z"/><path class="cls-1" d="M562.31,31.38l-2.02-4.39c-.83-1.8-1.41-3.21-1.41-4.17,0-1.27.79-1.89,1.58-1.89.92,0,1.45.62,2.07,1.27,2.68,2.81,6.5,6.64,12.04,6.64,3.52,0,5.19-1.58,5.19-3.6,0-2.81-3.12-3.6-7.51-4.83-5.41-1.49-12.35-4-12.35-10.72,0-5.45,4.7-9.27,10.55-9.27,3.56,0,5.32,1.05,6.37,1.05s1.14-1.45,2.46-1.45c1.54,0,1.89,1.19,3.12,3.21l1.19,1.98c1.45,2.42,2.02,3.74,2.02,4.61s-.7,1.41-1.32,1.41c-.88,0-1.36-.48-2.2-1.32-2.11-2.15-5.8-5.1-10.02-5.1-2.37,0-3.69.97-3.69,2.59,0,2.11,2.24,2.68,6.33,3.82,6.77,1.85,13.54,4.13,13.54,11.56,0,6.64-5.41,10.59-13.05,10.59-3.87,0-6.46-1.14-7.69-1.14-1.36,0-1.58,1.49-2.86,1.49-1.14,0-1.71-1.01-2.33-2.33Z"/><path class="cls-1" d="M620.67,23.16c0,1.1-.4,1.89-1.19,3.56l-2.15,4.7c-.79,1.67-1.49,2.33-2.59,2.33-1.32,0-1.58-1.14-3.74-1.14h-13.45c-3.03,0-4.13.13-5.32.13-1.36,0-1.93-.75-1.93-1.54,0-1.98,2.55-1.19,2.55-4.35V6.9c0-3.16-2.55-2.37-2.55-4.35,0-.79.57-1.54,1.93-1.54,1.14,0,2.24.13,5.32.13h11.73c2.15,0,2.42-1.14,3.74-1.14,1.1,0,1.85.66,2.59,2.33l1.93,4.39c.75,1.67,1.19,2.46,1.19,3.56s-.79,1.76-1.58,1.76-1.27-.48-2.02-1.27c-3.08-3.25-4.97-5.49-8.61-5.49h-2.07c-1.63,0-2.2.66-2.2,2.07v6.02c0,.88.31,1.23,1.41,1.23h1.1c2.5,0,2.64-3.12,4.53-3.12,1.01,0,1.63.62,1.63,2.02,0,1.05-.13,2.11-.13,3.16s.13,2.11.13,3.16c0,1.41-.62,2.02-1.63,2.02-1.89,0-2.02-3.12-4.53-3.12h-1.1c-1.1,0-1.41.35-1.41,1.23v6.46c0,1.41.57,2.07,2.2,2.07h3.38c3.78,0,6.02-2.15,9.23-5.8.7-.83,1.23-1.27,2.02-1.27s1.58.66,1.58,1.76Z"/><path class="cls-1" d="M654.72,2.55c0,1.98-2.77,1.19-2.77,4.35v23.91c0,1.63-1.14,2.29-2.24,2.29-1.63,0-2.33-.79-3.3-1.93l-16.39-19.07v14.77c0,3.08,3.56,2.02,3.56,4.35,0,1.01-.79,1.54-2.15,1.54s-2.5-.13-3.69-.13c-1.1,0-2.33.13-3.56.13-1.36,0-1.93-.75-1.93-1.54,0-1.98,2.77-1.19,2.77-4.35V6.9c0-3.16-2.77-2.37-2.77-4.35,0-.88.79-1.54,2.15-1.54,1.19,0,2.37.13,3.43.13,1.32,0,2.33-.13,3.43-.13s1.85.4,2.77,1.45l12.92,15.07V6.9c0-3.08-3.56-2.02-3.56-4.35,0-.79.79-1.54,2.15-1.54s2.5.13,3.69.13c1.1,0,2.33-.13,3.56-.13,1.36,0,1.93.75,1.93,1.54Z"/><path class="cls-1" d="M665.13,31.2c0-2.24,3.25-1.19,3.25-4.35V7.47c0-1.49-.57-2.2-1.98-2.2h-.44c-2.29,0-4.04,2.15-6.94,5.41-.7.79-1.23,1.27-2.02,1.27-.83,0-1.58-.66-1.58-1.85,0-1.01.4-1.8,1.01-3.38l1.71-4.39c.66-1.67,1.36-2.33,2.46-2.33,1.32,0,1.63,1.14,3.78,1.14h17.4c2.15,0,2.46-1.14,3.78-1.14,1.1,0,1.8.66,2.46,2.33l1.71,4.39c.62,1.58,1.01,2.37,1.01,3.38,0,1.19-.75,1.85-1.58,1.85-.79,0-1.32-.48-2.02-1.27-2.9-3.25-4.66-5.41-6.94-5.41h-.44c-1.41,0-1.98.7-1.98,2.2v19.38c0,3.16,3.25,2.11,3.25,4.35,0,.79-.57,1.54-1.93,1.54s-2.68-.13-6.02-.13-4.75.13-6.02.13c-1.36,0-1.93-.75-1.93-1.54Z"/><path class="cls-1" d="M694.75,31.38l-2.02-4.39c-.83-1.8-1.41-3.21-1.41-4.17,0-1.27.79-1.89,1.58-1.89.92,0,1.45.62,2.07,1.27,2.68,2.81,6.5,6.64,12.04,6.64,3.52,0,5.19-1.58,5.19-3.6,0-2.81-3.12-3.6-7.51-4.83-5.41-1.49-12.35-4-12.35-10.72,0-5.45,4.7-9.27,10.55-9.27,3.56,0,5.32,1.05,6.37,1.05s1.14-1.45,2.46-1.45c1.54,0,1.89,1.19,3.12,3.21l1.19,1.98c1.45,2.42,2.02,3.74,2.02,4.61s-.7,1.41-1.32,1.41c-.88,0-1.36-.48-2.2-1.32-2.11-2.15-5.8-5.1-10.02-5.1-2.37,0-3.69.97-3.69,2.59,0,2.11,2.24,2.68,6.33,3.82,6.77,1.85,13.54,4.13,13.54,11.56,0,6.64-5.41,10.59-13.05,10.59-3.87,0-6.46-1.14-7.69-1.14-1.36,0-1.58,1.49-2.86,1.49-1.14,0-1.71-1.01-2.33-2.33Z"/><path class="cls-3" d="M270.81,39.62h-.05V.13s.03-.06.06-.06h14.65s.05.02.05.05v39.46s-.02.04-.04.04c0,0-.02,0-.02,0l-7.27-4.88s-.07-.02-.11,0l-7.28,4.89Z"/><path class="cls-3" d="M289.92,3.01c0,.81-.66,1.47-1.47,1.47s-1.47-.66-1.47-1.47.66-1.47,1.47-1.47,1.47.66,1.47,1.47M288.54,1.68c-.73-.05-1.35.51-1.4,1.24-.05.73.5,1.37,1.23,1.41.73.05,1.35-.51,1.4-1.24.05-.73-.5-1.37-1.23-1.41"/><path class="cls-3" d="M288.2,3.28v.48s-.04.09-.09.09h-.2s-.08-.04-.08-.08v-1.53c0-.05.04-.1.1-.11.14-.01.35-.02.62-.01.32,0,.58.15.6.5.02.23-.1.39-.34.47-.01,0-.02.02-.02.04,0,.01.01.02.02.02.08.01.15.06.21.15,0,0,0,.01.01.02l.14.45s0,.08-.05.09c0,0-.01,0-.02,0h-.16c-.1,0-.19-.08-.2-.18-.04-.35-.21-.5-.48-.46-.03,0-.05.03-.05.06M288.2,2.52v.31c0,.06.04.11.1.11h.09c.21,0,.39-.1.39-.23v-.07c0-.13-.17-.23-.38-.24h-.09c-.06,0-.11.05-.11.11"/><path class="cls-1" d="M323.51,6.21s-.05.1-.14.24c-.18.3-.23.61-.23.99,0,8.95,0,14.06-.01,15.33,0,.07,0,.14,0,.21-.01,2.07-.01,4.74,0,8.03,0,.63,0,.95.01.97.05.32.17.61.38.9.01.02,0,.04,0,.05,0,0-.01,0-.02,0h-4.65c-.06,0-.1-.04-.1-.1v-2.45s0-.02-.02-.02c0,0-.01,0-.02,0-.43.43-.89.83-1.37,1.18-1.26.93-2.68,1.54-4.25,1.82-1.63.29-3.24.27-4.83-.06-.43-.09-.92-.23-1.46-.44-3.59-1.35-5.92-4.5-6.52-8.24-.09-.59-.14-1.53-.14-2.81,0-2.22,0-6.97,0-14.24,0-.35-.02-.59-.06-.71-.07-.22-.18-.44-.32-.64-.01-.02,0-.04.01-.06,0,0,.01,0,.02,0h5.16s.06.03.06.06c0,.01,0,.03-.01.04-.25.32-.37.67-.37,1.04,0,.74,0,5.52,0,14.35,0,.53.04,1.09.11,1.69.09.73.28,1.46.58,2.16.75,1.78,2.18,3,4.09,3.38.39.08.85.12,1.35.12,2.02,0,4.05-.44,5.71-1.6,1.07-.74,1.83-1.74,2.26-2.99,0-.02.01-.04.01-.06,0-4.36,0-10.06,0-17.09,0-.11-.06-.34-.12-.47-.1-.2-.22-.39-.35-.58-.01-.02,0-.04,0-.05,0,0,.01,0,.02,0h5.19s.03.01.03.03c0,0,0,0,0,.01"/><path class="cls-1" d="M338.58,28.78c6.67,0,10.93,0,12.8,0,.42,0,.78-.14,1.1-.41,0,0,.02,0,.03,0,0,0,0,0,0,.01v4.91s-.02.04-.04.04c0,0-.02,0-.03,0-.2-.16-.42-.27-.66-.33-.13-.04-.37-.05-.74-.05-1.16,0-6.94,0-17.34,0-.02,0-.03-.01-.03-.03,0,0,0-.01,0-.02.14-.22.23-.38.27-.46.09-.22.12-.46.12-.76,0-8.41,0-16.56,0-24.43,0-.4-.18-.7-.37-1.02-.01-.02,0-.04,0-.05,0,0,.01,0,.02,0h5.15s.04.02.04.05c0,0,0,.02,0,.03-.25.33-.37.7-.37,1.1v21.39s.02.05.05.05"/><path class="cls-1" d="M422.85,25.42s-.08-.01-.13-.01c-.97,0-2.23,0-3.77,0-.76,0-1.27,0-1.55,0-.03,0-.06.02-.07.05-.49,1.34-.96,2.62-1.4,3.85-.28.78-.51,1.71-.45,2.47.02.33.14.7.34,1.11,0,.02,0,.04-.02.04,0,0,0,0-.01,0h-6.12s-.02-.01-.02-.02c0,0,0-.01,0-.02.27-.26.5-.61.7-1.05.3-.7.57-1.35.8-1.95,2.69-6.98,5.52-14.32,8.48-22.01.27-.71.43-1.08.03-1.66-.01-.02,0-.04,0-.05,0,0,.01,0,.02,0,.26,0,1.13,0,2.61,0,.19,0,.37,0,.55,0s.36,0,.55,0c1.48,0,2.35,0,2.61,0,.02,0,.03.02.03.03,0,0,0,.01,0,.02-.4.59-.24.96.03,1.66,2.96,7.69,5.78,15.02,8.47,22.01.23.6.5,1.25.8,1.95.19.45.43.8.7,1.05,0,0,0,.02,0,.03,0,0-.01,0-.02,0h-6.11s-.03-.02-.03-.04c0,0,0,0,0-.01.2-.41.31-.78.33-1.11.05-.77-.17-1.7-.45-2.47-.44-1.23-.91-2.51-1.4-3.85-.01-.03-.04-.05-.07-.05-.27,0-.79,0-1.55,0-1.54,0-2.8,0-3.77,0-.06,0-.09.01-.14.01M422.85,21.74c.71,0,1.43,0,2.17,0,.59,0,1.16,0,1.73.01.02,0,.03-.01.03-.03,0,0,0,0,0-.01-2.22-5.73-3.52-9.09-3.9-10.07,0,0-.01-.01-.02-.01s-.02,0-.02.01c-.38.98-1.68,4.34-3.9,10.07,0,.01,0,.03.02.04,0,0,0,0,.01,0,.56,0,1.14,0,1.73-.01.74,0,1.46,0,2.17,0"/><path class="cls-1" d="M364.52,6.17c6.84,0,10.4,0,10.68,0,.04,0,.07.03.07.07v4.29s-.01.03-.03.03c0,0-.01,0-.02,0-.41-.3-.77-.4-1.34-.39-.05,0-2.41,0-7.07,0-.03,0-.05.02-.05.05,0,11.05,0,18.16,0,21.33,0,.57.08.93.39,1.34,0,.01,0,.03,0,.04,0,0-.01,0-.02,0-.88,0-1.75,0-2.61.01-.86,0-1.73,0-2.61,0-.02,0-.03-.01-.03-.03,0,0,0-.01,0-.02.31-.42.39-.77.39-1.34,0-3.17,0-10.28-.01-21.33,0-.03-.02-.05-.05-.05-4.67,0-7.02,0-7.07,0-.57-.01-.92.09-1.33.39-.01,0-.03,0-.04,0,0,0,0-.01,0-.02v-4.29s.03-.07.07-.07c.28,0,3.84,0,10.68,0"/><path class="cls-1" d="M382.79,32.89c.17-.23.29-.49.35-.78,0-.02,0-.04,0-.06V7.24c0-.25-.05-.45-.15-.64-.07-.12-.14-.25-.21-.38,0-.01,0-.03.01-.04,0,0,0,0,.01,0,2.22,0,5.71,0,10.46,0,1.32,0,2.58.13,3.78.38,1.43.3,2.8.83,3.91,1.74.99.81,1.68,1.85,2.07,3.13.32,1.03.46,2.12.43,3.27-.02.92-.15,1.79-.4,2.62-.3,1.03-.8,1.94-1.5,2.75-1.04,1.21-2.35,1.95-3.92,2.23-.02,0-.03.02-.03.04,0,0,0,0,0,.01,2.11,3.35,3.95,6.27,5.54,8.74.17.27.45.66.82,1.16.18.24.41.46.68.67,0,0,.01.02,0,.03,0,0-.01,0-.02,0h-6.03s-.05-.02-.05-.05c0,0,0-.01,0-.02.33-.61.05-1.23-.29-1.84-.15-.26-.44-.74-.89-1.45-.36-.57-.66-1.05-.89-1.44-1.14-1.9-2.18-3.63-3.11-5.19-.01-.02-.03-.03-.06-.03h-5.68s-.05.02-.05.05c0,1.39,0,4.37,0,8.93,0,.31.13.64.38.99,0,0,0,.02,0,.03,0,0-.01,0-.02,0h-5.16s-.03-.02-.03-.03c0,0,0-.01,0-.02M387.62,14.57c0,2.53,0,4.02,0,4.47,0,0,0,.02.01.02h0c2,.01,3.7,0,5.11-.02.9-.01,1.75-.11,2.56-.28.36-.08.76-.2,1.18-.37,1.3-.51,2.08-1.44,2.36-2.79.06-.29.09-.64.09-1.04,0-.4-.03-.75-.09-1.04-.28-1.35-1.07-2.28-2.37-2.79-.42-.17-.82-.29-1.18-.37-.81-.17-1.66-.26-2.56-.27-1.41-.02-3.11-.02-5.11,0,0,0-.01,0-.01.01h0c0,.45,0,1.94,0,4.47"/><path class="cls-1" d="M162.75,11.23c-.47.1-.86.23-1.2.38-.72.32-1.41.77-2.07,1.33-.64.54-1.25,1.13-1.83,1.77-1.05,1.16-1.94,2.27-2.98,3.65-1.69,2.24-2.65,3.52-2.88,3.83-.99,1.31-2.05,2.61-3.15,3.92-1.18,1.4-2.42,2.67-3.72,3.84-.9.81-1.84,1.56-2.8,2.24-1.03.73-2.1,1.38-3.2,1.93-3.22,1.61-6.88,2.43-10.44,1.59-1.2-.28-2.3-.75-3.32-1.4-2.29-1.47-3.91-3.97-3.72-6.74.13-1.91,1.13-3.6,2.54-4.86,1.66-1.49,3.82-2.59,6.01-2.88,1.45-.19,2.89-.05,4.33.42,1.08.35,2.07.87,2.97,1.55.18.14.42.33.39.6-.03.27-.18.41-.44.43-.11,0-.26-.05-.43-.18-.58-.44-1.15-.8-1.72-1.09-1.7-.86-3.45-1.15-5.25-.86-1.64.27-3.16,1-4.5,2.02-.32.25-.61.53-.87.85-1.07,1.33-1.55,2.85-1.46,4.57.13,2.24,1.47,4.18,3.54,5.06.83.36,1.73.57,2.68.63,2.09.14,4.12-.16,6.06-.92,1.71-.67,3.26-1.6,4.71-2.7.85-.64,1.65-1.32,2.43-2.04,1.1-1.02,2.22-2.14,3.37-3.36.85-.9,2.15-2.34,3.92-4.3.38-.42.95-1.05,1.71-1.88,1.16-1.26,2.34-2.5,3.56-3.72,1.74-1.74,3.76-3.25,5.95-4.37,1.33-.67,2.71-1.15,4.16-1.44.02,0,.03-.02.02-.03,0-.01-.01-.02-.02-.02-1.15-.21-2.3-.42-3.54-.59-1.99-.27-4.18-.47-6.56-.62-2.92-.18-5.77-.22-8.54-.14-.87.03-1.89.09-3.07.2-.76.07-1.61.17-2.55.33-1.17.19-2.26.49-3.27.92-.27.11-.58.31-.94.58-.78.6-1.1,1.62-.32,2.39.19.19.38.35.58.47.14.09.35.2.63.33.27.13.58.27.93.43.14.06.26.14.36.23.04.03.04.09,0,.12-.02.02-.04.03-.07.03-.16,0-.33-.04-.5-.11-1.52-.6-3.01-1.15-3.67-2.64-.13-.29-.19-.58-.18-.86.04-.86.6-1.48,1.29-1.91.82-.51,1.72-.82,2.66-1.06.86-.22,1.82-.39,2.89-.51,1.25-.14,2.48-.21,3.68-.23,1.71-.02,3.3.01,4.78.1,4.24.24,8.49.76,12.75,1.53,2.11.39,4,.82,5.67,1.3.68.2,1.31.42,1.86.68.14.06.29.18.47.34.02.02.04.05.04.08.06.42-.31.5-.64.47-.49-.05-.95-.14-1.4-.29-.96-.31-1.94-.39-2.86.2-.49.32-.95.73-1.38,1.24-.33.39-.59.73-.8,1.03-.68.98-1.32,2.04-1.92,3.21-1.08,2.11-2.24,4.35-3.47,6.7-.1.19-.19.4-.28.65-.01.04,0,.08.04.09.02,0,.05,0,.07-.02.57-.55,1.35-1.31,2.35-2.28,3.09-3.01,6.45-5.75,10.07-8.23,1.63-1.12,3.28-2.12,4.94-3,.96-.51,1.9-.97,2.83-1.37,1.66-.73,3.35-1.3,5.08-1.71.47-.11,1.07-.22,1.8-.32,1.13-.16,2.24-.19,3.32-.08.66.06,1.27.22,1.83.46.17.07.3.17.4.3.04.05.03.12-.02.16-.02.01-.04.02-.06.02-.06,0-.33.03-.81.07-1.88.16-3.6.51-5.14,1.05-1.53.53-2.95,1.26-4.24,2.19-.23.16-.53.39-.89.69-.31.25-.59.49-.85.73-.93.87-1.83,1.81-2.7,2.83-.91,1.07-1.84,2.21-2.79,3.41-1.84,2.33-3.51,4.76-5.02,7.3-.46.78-1.16,1.98-1.69,2.97-.46.85-.93,1.68-1.4,2.49-.21.36-.43.66-.65.91-.09.1-.21.19-.37.28-.03.01-.05.02-.08.03-.28.03-.55.04-.82,0-.46-.05-.77-.28-.93-.69-.08-.22-.11-.5-.07-.83.04-.36.11-.7.23-1.02.62-1.79,1.67-3.5,2.74-5.08.93-1.37,1.96-2.76,3.08-4.15,1.71-2.12,3.49-4.13,5.36-6.01.89-.9,1.75-1.71,2.59-2.45.66-.58,1.31-1.1,1.97-1.58,0,0,0,0,0,0,0,0,0,0,0,0s0,0-.01,0c-.1.03-.35.16-.76.39-1.95,1.09-3.88,2.31-5.8,3.66-1.85,1.3-3.7,2.7-5.55,4.19-2.42,1.95-4.74,3.96-6.96,6.04-1.07,1-2.11,2.04-3.13,3.1-.4.42-.84.92-1.33,1.51-.22.27-.39.55-.53.85-.16.37-.27.6-.32.69-.27.46-.62.86-1.05,1.19-.22.17-.47.29-.74.35-.25.05-.52,0-.81-.17-.03-.02-.06-.04-.08-.07-.33-.4-.4-.84-.23-1.32.19-.54.56-1.03,1.1-1.48.69-.57,1.27-1.25,1.75-2.05.33-.55.62-1.09.87-1.63.32-.68.64-1.42.95-2.21.37-.92.88-2.23,1.54-3.93.29-.75.63-1.54,1.01-2.38.66-1.44,1.38-2.65,2.15-3.62.74-.93,1.6-1.75,2.56-2.45.13-.09.2-.16.23-.2,0,0,0-.02,0-.03,0,0,0,0-.02,0"/><path class="cls-1" d="M241.55,22.34s0-.02,0-.02c0,0,0,0-.01,0-.36.2-.73.36-1.11.47-.67.2-1.3.35-1.9.44-.03,0-.05.02-.07.05-.04.06-.08.14-.13.25-.02.04-.06.12-.13.25-1.03,1.89-2.26,3.63-3.69,5.22-.81.9-1.69,1.69-2.64,2.38-.24.18-.61.4-1.11.66-1.18.63-2.65.95-3.94.54-.43-.14-.85-.34-1.26-.59-.52-.33-.94-.75-1.26-1.26-.01-.02-.04-.03-.05-.01,0,0,0,0,0,0-.92.79-2.01,1.48-3.14,1.82-.47.14-.95.21-1.46.21-1.17,0-2.38-.59-3.02-1.59-.1-.15-.17-.32-.22-.52,0-.02-.02-.03-.04-.02,0,0,0,0-.01,0-.51.36-.87.6-1.07.72-1.9,1.12-4.12,1.58-6.3,1.24-.53-.08-1.05-.23-1.58-.45-.64-.27-1.17-.66-1.59-1.16-.08-.1-.15-.21-.19-.34,0-.02-.03-.03-.05-.03,0,0,0,0-.01,0-.7.63-1.5,1.11-2.38,1.46-.89.35-1.71.52-2.46.51-.04,0-.08,0-.11,0-.01,0-.07,0-.16-.01-.48-.03-.89-.16-1.25-.38-.34-.21-.6-.48-.78-.83-.35-.68-.29-1.45-.04-2.18.36-1.02,1.08-2.07,1.76-2.94.46-.59,1.06-1.32,1.79-2.21.73-.89,1.19-1.47,1.67-2.22.27-.43.64-1.16.58-1.68-.07-.58-.44-.88-1.1-.92-.28-.02-.63.04-1.04.17-.47.14-.98.37-1.53.67-.68.38-1.4.86-2.15,1.46-1.37,1.08-2.65,2.4-3.84,3.95-.99,1.29-1.79,2.68-2.4,4.15-.41.99-.7,2.02-.88,3.1,0,.05-.05.08-.09.08-.78,0-1.37-.34-1.76-1.01-.18-.31-.3-.65-.37-1.01,0-.02-.02-.04-.05-.03,0,0-.01,0-.02,0-.39.3-.77.55-1.13.77-1.21.73-2.5,1.15-3.86,1.27-1.61.14-3.35-.22-4.52-1.38-.09-.09-.24-.3-.47-.64-.01-.02-.04-.03-.06-.01-.06.04-.17.13-.34.27-1.22,1.05-3.08,2.12-4.73,1.48-.77-.3-1.31-.99-1.43-1.79-.04-.3-.05-.69-.01-1.16.21-2.95,1.6-5.65,3.6-7.81,1.42-1.54,2.97-2.73,4.65-3.56.07-.04.16-.07.25-.1.02,0,.05-.01.08,0,.11.03.18.1.22.21.09.28-.07.39-.28.6-1.95,1.82-3.65,3.95-4.84,6.34-.59,1.19-1.06,2.43-1.2,3.66-.08.67-.1,1.86.73,2.1.11.03.27.03.45-.01.87-.19,1.56-.65,2.07-1.39.29-.41.52-.8.69-1.17.39-.85.77-1.62,1.12-2.32.45-.89,1.03-1.81,1.75-2.77.79-1.04,1.83-2.11,3.14-3.2,1.06-.89,2.21-1.54,3.46-1.95.55-.18,1.08-.27,1.58-.28,1.17,0,2.07.59,2.18,1.81.13,1.45-.46,3.68-2.17,4.1-.33.08-.64.07-.92-.04-.5-.19-.7-.56-.61-1.12.05-.32.33-.61.53-.85.05-.06.11-.12.18-.18.53-.45.93-.74,1.23-1.19.2-.3.23-.61.1-.91-.44-1.03-2.02-.26-2.63.11-.73.44-1.44.97-2.12,1.59-.83.75-1.57,1.58-2.23,2.49-.88,1.21-1.67,2.7-1.74,4.2-.03.62.09,1.2.37,1.74.23.46.62.86,1.1.98.22.05.48.08.76.09,1.68.05,3.18-.46,4.51-1.52.59-.47,1.1-.96,1.55-1.48.81-.94,1.63-2.02,2.46-3.22,1.22-1.78,2.19-3.17,2.9-4.17.91-1.28,1.88-2.54,2.91-3.78,2.03-2.45,4.26-4.68,6.69-6.68.34-.28.75-.56,1.23-.82,1.32-.73,2.75-1.2,4.28-1.41.48-.06.9-.07,1.28-.02.05,0,.09.06.08.11,0,.02-.01.04-.03.06-.02.02-.08.05-.16.08-2.21.9-4.22,2.15-6.01,3.76-.78.7-1.56,1.48-2.35,2.35-.83.92-1.58,1.79-2.25,2.62-1.18,1.46-2.23,2.8-3.15,4-.26.34-.4.53-.43.58,0,.01,0,.02,0,.03,0,0,.02,0,.02,0,1.05-.75,2.12-1.43,3.22-2.04.8-.45,1.54-.78,2.23-1,.13-.04.32-.09.54-.15.92-.23,1.81-.15,2.68.25,1.17.54,1.35,1.53.84,2.66-.43.96-1.05,1.79-1.71,2.65-.08.1-.96,1.17-2.66,3.21-.54.64-1.01,1.29-1.43,1.92-.15.23-.26.45-.34.67-.31.86.12,1.54,1.07,1.6.11,0,.21,0,.3,0,1.27-.15,2.2-.78,2.97-1.76.34-.42.65-.89.93-1.4.51-.91,1.05-1.88,1.62-2.89.24-.43.59-.91.85-1.31,1.24-1.83,2.86-3.3,4.88-4.43.67-.38,1.3-.67,1.89-.86,1.04-.36,2.08-.45,3.11-.28.62.1,1.18.47,1.29,1.12.1.63-.19,1.28-.52,1.88-.16.28-.34.55-.57.83-1.12,1.41-2.49,2.52-4.09,3.34-.96.49-2.02.83-3.1.9-.65.04-1.27-.06-1.88-.3-.03-.01-.07,0-.09.02-.47.6-.84,1.23-1.12,1.9-.14.35-.23.71-.26,1.1-.06.84.27,1.47.98,1.89.64.38,1.37.56,2.18.55.77-.01,1.52-.21,2.27-.59.86-.44,1.7-1.03,2.5-1.76.76-.7,1.43-1.36,1.99-2,1.04-1.18,2.04-2.39,3.01-3.64,1.42-1.82,3.26-4.23,5-6.34,1.45-1.75,2.83-3.24,4.14-4.47,1.6-1.5,3.4-2.88,5.37-3.85,1.42-.7,2.92-1.13,4.49-1.28.31-.03.33.47.04.57-1.1.39-2.17.96-3.13,1.6-.96.63-1.91,1.35-2.86,2.16-1.15.98-2.25,2.02-3.3,3.11-3.13,3.25-5.93,6.71-8.59,10.36-.74,1.02-1.44,1.99-2.09,2.91-.39.55-.71,1.09-.95,1.61-.1.21-.16.45-.19.71-.1,1.03,1.53.79,2.08.57.93-.36,1.63-.95,2.31-1.67.5-.53,1.03-1.17,1.58-1.94.52-.72,1.3-1.79,2.35-3.21.76-1.04,1.58-2,2.45-2.89,1.17-1.19,2.59-2.21,4.07-2.76,1.01-.38,2.06-.57,3.13-.58.19,0,.42.03.68.09,1.42.34,1.91,1.71,1.72,3.03,0,.02.01.04.03.04h0c.91-.02,1.8-.21,2.65-.6.61-.27,1.15-.57,1.62-.9,1.36-.96,2.61-2.18,3.75-3.38.77-.82,1.63-1.71,2.57-2.69,1.19-1.24,2.51-2.46,3.93-3.48,1.35-.96,2.71-1.66,4.1-2.11,1.12-.36,2.27-.57,3.45-.62.18,0,.41.13.22.34-.04.04-.16.11-.36.19-2.75,1.11-5.25,2.66-7.39,4.65-.13.12-.53.5-1.2,1.14-.2.19-.75.81-1.66,1.85-1.67,1.92-2.73,3.15-3.2,3.7-.48.57-.83,1-1.06,1.29-.2.26-.33.46-.4.6,0,.02-.01.04,0,.06,0,.03.04.06.07.05,0,0,0,0,.01,0,.16-.06.32-.14.48-.24.69-.43,1.39-.86,2.12-1.29.76-.45,1.48-.81,2.17-1.1.91-.38,1.84-.66,2.82-.6.96.06,1.85.6,1.96,1.65.04.39.01.77-.08,1.15-.19.75-.47,1.48-.85,2.19-.62,1.14-1.3,2.24-2.06,3.28-.96,1.33-2.08,2.5-3.37,3.53-1.33,1.06-2.77,1.88-4.33,2.46-.86.32-1.74.52-2.65.6-.82.07-1.75,0-2.55-.35-1.46-.64-1.94-1.99-1.76-3.49.1-.79.33-1.61.72-2.45.66-1.45,1.51-2.82,2.52-4.11M210.83,24.65s.04.01.05.01c.42-.03.87-.12,1.36-.27,1.83-.58,3.58-1.64,4.82-3.11.36-.43,1.4-1.87.53-2.28-.23-.11-.73-.01-.96.07-.54.21-1.06.49-1.57.85-.64.45-1.28.97-1.91,1.55-.92.86-1.79,1.76-2.6,2.72-.04.05-.1.12-.17.23-.03.05-.02.11.02.15,0,0,.01,0,.02.01.17.08.3.1.38.08.01,0,.02,0,.03,0M232.82,27.37s.02-.02.04-.04c1-1.08,1.91-2.16,2.71-3.24.39-.53.76-1.1,1.11-1.71.35-.62.58-1.22.69-1.8.07-.34.05-.63-.04-.86-.11-.28-.29-.44-.55-.5-.33-.08-.69-.06-1.07.07-.44.15-.85.33-1.23.56-.77.47-1.51,1.02-2.19,1.65-1.3,1.18-2.49,2.52-3.58,4-.48.65-.85,1.25-1.12,1.81-.35.74-.58,1.32-.66,2.07-.03.29.02.57.14.84.13.28.37.43.74.48.19.02.39,0,.61-.06.83-.23,1.6-.73,2.27-1.27.78-.63,1.49-1.28,2.13-1.97M245.15,30.12c.34-.2.72-.47,1.06-.73.93-.72,1.82-1.53,2.67-2.43,1.19-1.26,2.25-2.55,3.17-3.87.37-.53.69-1.06.96-1.59.23-.45.56-1.21.38-1.64-.1-.24-.3-.36-.6-.36-.38,0-.77.07-1.2.21-.37.13-.65.24-.85.33-.89.4-1.77.85-2.64,1.37-1.44.85-2.56,1.62-3.36,2.3-.66.56-1.21,1.08-1.65,1.55-.92.98-1.77,2.18-2.12,3.47-.2.74-.19,1.63.48,2.12.55.4,1.45.27,2.1.05.65-.22,1.06-.45,1.61-.77"/><path class="cls-1" d="M183.36,16.14c-.94-.44-1.46-1.3-1.17-1.93.29-.63,1.29-.78,2.23-.34.94.44,1.46,1.3,1.17,1.93-.29.63-1.29.78-2.23.34"/><path class="cls-1" d="M440.04,30.16c0,.81-.66,1.47-1.47,1.47s-1.47-.66-1.47-1.47.66-1.47,1.47-1.47,1.47.66,1.47,1.47M439.9,30.16c0-.73-.59-1.33-1.33-1.33s-1.33.59-1.33,1.33.59,1.33,1.33,1.33,1.33-.59,1.33-1.33"/><path class="cls-1" d="M438.89,30.28l.16.06s.05.03.06.06l.19.55s0,.03-.02.04c0,0,0,0,0,0h-.28s-.07-.02-.08-.06l-.12-.36c-.03-.09-.1-.16-.19-.18l-.14-.04c-.06-.02-.12.02-.14.08,0,0,0,.02,0,.03v.47s-.03.07-.07.07h-.24s-.05-.02-.05-.05v-1.63s.02-.05.05-.05c.44,0,.7,0,.78.01.29.04.45.19.48.44.04.28-.09.45-.36.53-.01,0-.02.02-.02.03,0,0,0,.01.01.01M438.32,29.59v.48s.02.02.03.02h.27c.16,0,.3-.13.29-.27h0c0-.15-.14-.26-.3-.26h-.27s-.02.02-.02.03Z"/></g></svg>